<svg width="18" height="20" viewBox="0 0 18 20" fill="none" xmlns="http://www.w3.org/2000/svg">
<path d="M17.0373 7.07597C16.9437 7.12991 14.7162 8.26814 14.7162 10.7919C14.8212 13.67 17.5272 14.6793 17.5736 14.6793C17.5272 14.7333 17.1651 16.0543 16.0924 17.4391C15.2412 18.632 14.2963 19.8347 12.8615 19.8347C11.4967 19.8347 11.0068 19.0396 9.43203 19.0396C7.74088 19.0396 7.26236 19.8347 5.96756 19.8347C4.53278 19.8347 3.51793 18.5675 2.62024 17.3859C1.454 15.8393 0.462742 13.4122 0.427747 11.0818C0.404164 9.84695 0.661298 8.63307 1.31403 7.60201C2.2353 6.16259 3.88005 5.18546 5.67619 5.15324C7.05239 5.11051 8.27721 6.0232 9.11708 6.0232C9.92196 6.0232 11.4267 5.15324 13.1293 5.15324C13.8642 5.15394 15.8239 5.35777 17.0373 7.07597ZM9.00069 4.90668C8.75572 3.77896 9.43203 2.65123 10.0619 1.93187C10.8668 1.06191 12.138 0.471436 13.2343 0.471436C13.3043 1.59916 12.8608 2.70517 12.068 3.51068C11.3567 4.38064 10.1319 5.03556 9.00069 4.90668Z" fill="white"/>
</svg>
