<svg width="23" height="23" viewBox="0 0 23 23" fill="none" xmlns="http://www.w3.org/2000/svg">
<path d="M1.28388 2.60172C0.839129 2.15697 0.840543 1.43545 1.28703 0.992453C1.73105 0.551902 2.44771 0.553307 2.89 0.995596L22.3524 20.458C22.7947 20.9003 22.7961 21.6169 22.3555 22.0609C21.9125 22.5074 21.191 22.5089 20.7463 22.0641L18.4622 19.7801C17.6254 18.9433 16.2556 18.9979 15.2068 19.546C15.0851 19.6097 14.9605 19.6702 14.8332 19.7274C14.1899 20.0165 13.7045 20.6166 13.7045 21.3219C13.7045 22.1771 13.0113 22.8703 12.1561 22.8703H11.4683C10.6162 22.8703 9.92543 22.1795 9.92543 21.3274C9.92543 20.6201 9.43555 20.0204 8.78803 19.7357C7.27534 19.0707 6.14156 17.9223 5.70854 16.5522C5.49888 15.8888 6.08046 15.3121 6.77617 15.3121C7.47189 15.3121 8.03909 15.924 8.47317 16.4677C9.11292 17.269 10.3845 17.8315 11.815 17.8315C13.9335 17.8315 14.0212 15.339 12.5232 13.841L12.2944 13.6123C11.7168 13.0347 10.991 12.6344 10.205 12.4123C7.87223 11.7533 5.51647 10.7032 5.51647 7.75389C5.51647 7.23911 5.37472 6.69256 5.01071 6.32855L1.28388 2.60172ZM9.49798 3.09726C9.7546 3.00395 9.92543 2.76006 9.92543 2.487V1.81066C9.92543 0.918729 10.6485 0.195679 11.5404 0.195679H12.1616C13.0137 0.195679 13.7045 0.886466 13.7045 1.73859C13.7045 2.44592 14.1944 3.04563 14.8419 3.3303C16.3546 3.99531 17.4884 5.14372 17.9214 6.51378C18.1311 7.17715 17.5495 7.75389 16.8538 7.75389C16.1581 7.75389 15.5909 7.14197 15.1568 6.59828C14.517 5.797 13.2455 5.23449 11.815 5.23449C11.6076 5.23449 11.4051 5.24696 11.2077 5.26969C10.7589 5.32134 10.2974 5.20336 9.978 4.88395L9.26073 4.16669C8.9248 3.83075 9.05151 3.25962 9.49798 3.09726Z" fill="#FD3E3E"/>
</svg>
