<svg width="29" height="29" viewBox="0 0 29 29" fill="none" xmlns="http://www.w3.org/2000/svg">
<path d="M17.4444 5.46205V9.00906C17.4444 9.49077 17.0539 9.88128 16.5722 9.88128C16.0905 9.88128 15.7 9.49077 15.7 9.00906V5.46205C15.7 5.14806 15.4208 4.99687 15.2348 4.99687C15.1766 4.99687 15.1185 5.0085 15.0603 5.03176L5.83811 8.50899C5.22174 8.74158 4.82634 9.32306 4.82634 9.98594C4.82634 10.4763 4.58142 10.926 4.24726 11.2849C3.5246 12.0611 3.08191 13.105 3.08191 14.254V9.98594C3.08191 8.60203 3.93087 7.3693 5.22174 6.88086L14.4556 3.392C14.7114 3.29896 14.9789 3.25244 15.2348 3.25244C16.3977 3.25244 17.4444 4.19443 17.4444 5.46205Z" fill="#A8A8A8"/>
<path d="M25.178 17.7313V18.8942C25.178 19.2082 24.9338 19.4641 24.6082 19.4757H22.9103C22.2939 19.4757 21.7357 19.0221 21.6892 18.4174C21.6543 18.0569 21.7938 17.7196 22.0264 17.487C22.2357 17.2661 22.5265 17.1498 22.8405 17.1498H24.5965C24.9338 17.1614 25.178 17.4173 25.178 17.7313Z" fill="#A8A8A8"/>
<path d="M22.8289 15.9286H24.0151C24.6547 15.9286 25.178 15.4053 25.178 14.7656V14.2539C25.178 11.8466 23.2126 9.88123 20.8053 9.88123H7.45462C6.46611 9.88123 5.559 10.2069 4.82634 10.7651C3.76805 11.5559 3.08191 12.8235 3.08191 14.2539V22.0806C3.08191 24.4879 5.0473 26.4533 7.45462 26.4533H20.8053C23.2126 26.4533 25.178 24.4879 25.178 22.0806V21.8597C25.178 21.22 24.6547 20.6967 24.0151 20.6967H23.0033C21.8869 20.6967 20.817 20.0106 20.5262 18.929C20.282 18.0452 20.5727 17.1962 21.1542 16.6264C21.5845 16.1844 22.1776 15.9286 22.8289 15.9286ZM16.4559 15.696H8.3152C7.83839 15.696 7.44299 15.3006 7.44299 14.8238C7.44299 14.347 7.83839 13.9516 8.3152 13.9516H16.4559C16.9327 13.9516 17.3281 14.347 17.3281 14.8238C17.3281 15.3006 16.9327 15.696 16.4559 15.696Z" fill="#A8A8A8"/>
</svg>
