<svg width="13" height="24" viewBox="0 0 13 24" fill="none" xmlns="http://www.w3.org/2000/svg">
<path d="M0.479547 16.7821C0.269885 16.1187 0.851464 15.542 1.54718 15.542C2.24289 15.542 2.81009 16.1539 3.24417 16.6976C3.88392 17.4989 5.15547 18.0614 6.58599 18.0614C8.6393 18.0614 10.3651 16.9024 10.3651 15.542C10.3651 14.1563 9.055 13.6524 6.28366 12.9848C3.61309 12.3171 0.287476 11.4857 0.287476 7.98375C0.287476 6.0795 1.60814 4.41781 3.55904 3.56015C4.20656 3.27549 4.69643 2.67578 4.69643 1.96845C4.69643 1.11632 5.38722 0.425537 6.23935 0.425537H6.93262C7.78475 0.425537 8.47554 1.11632 8.47554 1.96845C8.47554 2.67578 8.96542 3.27549 9.61293 3.56015C11.1256 4.22517 12.2594 5.37357 12.6924 6.74364C12.9021 7.40701 12.3205 7.98375 11.6248 7.98375C10.9291 7.98375 10.3619 7.37183 9.9278 6.82814C9.28805 6.02686 8.01651 5.46435 6.58599 5.46435C4.53267 5.46435 2.80688 6.62327 2.80688 7.98375C2.80688 9.36942 4.11697 9.8733 6.88832 10.5409C9.55888 11.2086 12.8845 12.04 12.8845 15.542C12.8845 17.4462 11.5638 19.1079 9.61294 19.9656C8.96542 20.2502 8.47554 20.8499 8.47554 21.5573C8.47554 22.4094 7.78475 23.1002 6.93262 23.1002H6.23935C5.38722 23.1002 4.69643 22.4094 4.69643 21.5573C4.69643 20.8499 4.20656 20.2502 3.55904 19.9656C2.04635 19.3005 0.912564 18.1521 0.479547 16.7821Z" fill="#55D562"/>
</svg>
