<svg width="27" height="24" viewBox="0 0 27 24" fill="none" xmlns="http://www.w3.org/2000/svg">
<path fill-rule="evenodd" clip-rule="evenodd" d="M12.8417 0.740234C14.08 0.74033 15.2843 1.14574 16.2706 1.89455C17.2568 2.64336 17.9709 3.69441 18.3038 4.88717C18.34 5.02995 18.4848 5.11655 18.6277 5.08086L20.7249 4.55713C20.8971 4.51428 21.0764 4.50828 21.251 4.53953C21.4257 4.57078 21.5918 4.63857 21.7384 4.73847C21.885 4.83837 22.0089 4.96812 22.1019 5.11922C22.1949 5.27032 22.255 5.43936 22.2781 5.61528L22.2895 5.77904C22.2895 7.23559 22.9618 8.58629 23.6965 9.84396C23.8079 10.0347 23.9117 10.2302 24.0077 10.4299C24.1135 10.6659 24.348 10.8179 24.6067 10.8179H24.8089C25.1174 10.8179 25.4152 10.9312 25.6458 11.1362C25.8763 11.3412 26.0236 11.6237 26.0597 11.9302L26.0686 12.0776V15.8567C26.0686 16.064 26.0174 16.2681 25.9197 16.451C25.8219 16.6338 25.6805 16.7897 25.508 16.9047L25.3719 16.9828C24.4157 17.4618 23.6744 18.2631 23.0042 19.0965C22.5307 19.6854 21.9765 20.2082 21.356 20.6486C21.1521 20.7856 21.0297 21.0151 21.0297 21.2608V22.1552C21.0297 22.4637 20.9164 22.7615 20.7114 22.9921C20.5064 23.2227 20.2239 23.37 19.9174 23.4061L19.77 23.4149H15.9909C15.6824 23.4148 15.3846 23.3016 15.154 23.0965C14.9235 22.8915 14.7762 22.609 14.7401 22.3026C14.7351 22.2198 14.6665 22.1552 14.5836 22.1552H14.1202C13.7619 22.1552 13.4846 22.4637 13.3081 22.7755C13.2646 22.8525 13.2127 22.9251 13.1532 22.9921C12.9482 23.2227 12.6656 23.37 12.3592 23.4061L12.2118 23.4149H8.43273C8.12418 23.4148 7.82638 23.3016 7.59581 23.0965C7.36524 22.8915 7.21794 22.609 7.18184 22.3026L7.17302 22.1552C7.17302 21.3531 6.74702 20.6246 6.14712 20.0921C5.66341 19.6628 5.23107 19.1768 4.85992 18.6435C4.6838 18.3904 4.52244 18.1281 4.37645 17.8579C3.69996 16.606 2.58121 15.544 1.6959 14.4299C1.21374 13.8231 0.929642 13.0829 0.88207 12.3093L0.874512 12.0776V11.4477C0.874868 11.1266 0.99781 10.8178 1.21822 10.5843C1.43863 10.3509 1.73987 10.2104 2.06039 10.1916C2.38091 10.1727 2.69652 10.277 2.94273 10.4831C3.18894 10.6892 3.34718 10.9815 3.3851 11.3003L3.39392 11.4477V12.0776C3.39392 12.2414 3.57687 12.2315 3.61482 12.0722C3.8389 11.131 4.22826 10.2355 4.76615 9.42798C4.96124 9.13508 5.17453 8.85575 5.40447 8.59151C6.36209 7.49104 6.99733 6.07741 7.44031 4.6875C7.68265 3.92717 8.08279 3.22656 8.61456 2.63153C9.14633 2.0365 9.79774 1.56045 10.5262 1.23454C11.2546 0.90862 12.0437 0.740179 12.8417 0.740234ZM18.5103 10.8179C18.1763 10.8179 17.8558 10.9506 17.6196 11.1868C17.3834 11.4231 17.2506 11.7435 17.2506 12.0776C17.2506 12.4116 17.3834 12.7321 17.6196 12.9683C17.8558 13.2045 18.1763 13.3373 18.5103 13.3373C18.8444 13.3373 19.1648 13.2045 19.4011 12.9683C19.6373 12.7321 19.77 12.4116 19.77 12.0776C19.77 11.7435 19.6373 11.4231 19.4011 11.1868C19.1648 10.9506 18.8444 10.8179 18.5103 10.8179ZM12.8417 3.25964C12.0787 3.25964 11.3416 3.53665 10.7675 4.03919C10.6701 4.12442 10.5785 4.21515 10.4931 4.31075C9.88832 4.98772 10.6742 5.77861 11.582 5.77904H15.826C15.8327 5.77904 15.8392 5.77825 15.8457 5.77669C15.8894 5.76607 15.9169 5.72258 15.9065 5.67881C15.7456 5.00381 15.366 4.4 14.8258 3.96218C14.2646 3.50738 13.564 3.25934 12.8417 3.25964Z" fill="#589BFF"/>
</svg>
