<svg width="40" height="39" viewBox="0 0 40 39" fill="none" xmlns="http://www.w3.org/2000/svg">
<path d="M37.343 19.7395C37.343 18.3464 37.2263 17.3298 36.9737 16.2756H20.5457V22.5632H30.1885C29.9942 24.1258 28.9443 26.479 26.6113 28.0602L26.5786 28.2707L31.7729 32.1671L32.1327 32.2019C35.4377 29.2463 37.343 24.8976 37.343 19.7395Z" fill="#4285F4"/>
<path d="M20.5445 36.306C25.2687 36.306 29.2347 34.7999 32.1315 32.2021L26.6101 28.0603C25.1326 29.0581 23.1496 29.7546 20.5445 29.7546C15.9175 29.7546 11.9903 26.7991 10.5904 22.714L10.3852 22.7309L4.98421 26.7784L4.91357 26.9685C7.79087 32.5032 13.7011 36.306 20.5445 36.306Z" fill="#34A853"/>
<path d="M10.5915 22.7141C10.2222 21.6599 10.0084 20.5303 10.0084 19.3632C10.0084 18.196 10.2222 17.0665 10.5721 16.0123L10.5623 15.7878L5.0936 11.6753L4.91467 11.7577C3.7288 14.0544 3.04834 16.6335 3.04834 19.3632C3.04834 22.0929 3.7288 24.6719 4.91467 26.9686L10.5915 22.7141Z" fill="#FBBC05"/>
<path d="M20.5446 8.97159C23.8301 8.97159 26.0464 10.3458 27.3102 11.4943L32.2483 6.82554C29.2155 4.09587 25.2688 2.42041 20.5446 2.42041C13.7011 2.42041 7.79088 6.2231 4.91357 11.7577L10.571 16.0123C11.9904 11.9272 15.9175 8.97159 20.5446 8.97159Z" fill="#EB4335"/>
</svg>
