<svg width="330" height="26" viewBox="0 0 330 26" fill="none" xmlns="http://www.w3.org/2000/svg">
<path d="M5.8297 20.53C4.14556 20.0928 2.75291 19.1859 1.65175 17.8095C0.550583 16.433 0 14.8299 0 13C0 11.1701 0.550583 9.56694 1.65175 8.19048C2.75291 6.81402 4.14556 5.90718 5.8297 5.46996V7.51035C4.67995 7.899 3.74461 8.59532 3.02367 9.59933C2.30273 10.6033 1.94259 11.7369 1.94323 13C1.94323 14.2631 2.3037 15.3966 3.02464 16.4006C3.74558 17.4046 4.6806 18.101 5.8297 18.4896V20.53ZM13.6026 20.7729C11.4489 20.7729 9.61479 20.016 8.10037 18.5022C6.58594 16.9885 5.82905 15.1544 5.8297 13C5.8297 10.8462 6.58659 9.01214 8.10037 7.49772C9.61415 5.98329 11.4482 5.2264 13.6026 5.22705C14.6714 5.22705 15.6754 5.42947 16.6146 5.83431C17.5539 6.23915 18.3797 6.79783 19.0923 7.51035L17.732 8.87061C17.1976 8.33622 16.5784 7.91908 15.8743 7.61917C15.1702 7.31927 14.413 7.16964 13.6026 7.17028C11.9833 7.17028 10.6068 7.73706 9.47326 8.87061C8.33971 10.0042 7.77293 11.3806 7.77293 13C7.77293 14.6193 8.33971 15.9958 9.47326 17.1294C10.6068 18.2629 11.9833 18.8297 13.6026 18.8297C14.4123 18.8297 15.1692 18.6797 15.8733 18.3798C16.5774 18.0799 17.197 17.6631 17.732 17.1294L19.0923 18.4896C18.3797 19.2021 17.5539 19.7608 16.6146 20.1657C15.6754 20.5705 14.6714 20.7729 13.6026 20.7729ZM19.4323 16.8864L18.0721 15.5262L19.6267 13.9716H12.631V12.0284H19.6267L18.0721 10.4738L19.4323 9.11352L23.3188 13L19.4323 16.8864Z" fill="#55D562"/>
<path d="M37.9395 10.2649C37.8783 9.69233 37.6205 9.24655 37.166 8.92751C36.7158 8.60846 36.1302 8.44894 35.409 8.44894C34.9021 8.44894 34.4672 8.52543 34.1045 8.67839C33.7417 8.83136 33.4642 9.03895 33.2719 9.30118C33.0796 9.5634 32.9813 9.86278 32.9769 10.1993C32.9769 10.479 33.0403 10.7216 33.167 10.927C33.2981 11.1324 33.4751 11.3072 33.698 11.4514C33.9209 11.5913 34.1678 11.7093 34.4388 11.8054C34.7098 11.9016 34.9829 11.9824 35.2583 12.048L36.517 12.3627C37.0239 12.4807 37.5112 12.6402 37.9789 12.8412C38.4509 13.0423 38.8726 13.2958 39.2441 13.6017C39.62 13.9076 39.9171 14.2769 40.1357 14.7096C40.3542 15.1423 40.4635 15.6492 40.4635 16.2305C40.4635 17.0172 40.2624 17.7099 39.8603 18.3086C39.4583 18.903 38.877 19.3685 38.1165 19.705C37.3604 20.0371 36.4448 20.2032 35.3697 20.2032C34.3252 20.2032 33.4183 20.0415 32.6491 19.7181C31.8843 19.3947 31.2855 18.9227 30.8529 18.3021C30.4246 17.6815 30.1929 16.9254 30.158 16.0338H32.5508C32.5857 16.5015 32.73 16.8904 32.9835 17.2007C33.2369 17.511 33.5669 17.7427 33.9734 17.8956C34.3842 18.0486 34.8431 18.1251 35.35 18.1251C35.8789 18.1251 36.3421 18.0464 36.7398 17.8891C37.1419 17.7274 37.4566 17.5045 37.6839 17.2204C37.9111 16.932 38.0269 16.5954 38.0313 16.2108C38.0269 15.8612 37.9242 15.5728 37.7232 15.3455C37.5222 15.1139 37.2403 14.9216 36.8775 14.7686C36.5191 14.6113 36.0996 14.4714 35.6188 14.349L34.0914 13.9557C32.9856 13.6716 32.1116 13.2411 31.4691 12.6642C30.831 12.083 30.512 11.3116 30.512 10.3501C30.512 9.55903 30.7261 8.86632 31.1544 8.27194C31.5871 7.67756 32.1749 7.21648 32.9179 6.8887C33.6609 6.55655 34.5022 6.39047 35.4418 6.39047C36.3946 6.39047 37.2293 6.55655 37.9461 6.8887C38.6672 7.21648 39.2332 7.67319 39.644 8.25883C40.0548 8.8401 40.2668 9.50877 40.2799 10.2649H37.9395ZM42.5268 20V9.93052H44.9V20H42.5268ZM43.72 8.50139C43.3441 8.50139 43.0207 8.37683 42.7497 8.12772C42.4788 7.87423 42.3433 7.57049 42.3433 7.21648C42.3433 6.8581 42.4788 6.55436 42.7497 6.30524C43.0207 6.05176 43.3441 5.92502 43.72 5.92502C44.1002 5.92502 44.4236 6.05176 44.6902 6.30524C44.9612 6.55436 45.0967 6.8581 45.0967 7.21648C45.0967 7.57049 44.9612 7.87423 44.6902 8.12772C44.4236 8.37683 44.1002 8.50139 43.72 8.50139ZM47.3403 20V9.93052H49.6086V11.6415H49.7266C49.9364 11.0646 50.2838 10.6145 50.7689 10.2911C51.2541 9.9633 51.8331 9.79941 52.5062 9.79941C53.188 9.79941 53.7627 9.96548 54.2303 10.2976C54.7023 10.6254 55.0345 11.0734 55.2268 11.6415H55.3317C55.5546 11.0821 55.9304 10.6363 56.4592 10.3042C56.9924 9.96767 57.624 9.79941 58.3538 9.79941C59.2804 9.79941 60.0364 10.0922 60.6221 10.6779C61.2077 11.2635 61.5005 12.1179 61.5005 13.2411V20H59.1208V13.6082C59.1208 12.9833 58.9548 12.5266 58.6226 12.2381C58.2905 11.9453 57.884 11.7989 57.4033 11.7989C56.8307 11.7989 56.3828 11.9781 56.0593 12.3364C55.7403 12.6904 55.5808 13.1515 55.5808 13.7197V20H53.2535V13.5099C53.2535 12.9898 53.0962 12.5746 52.7815 12.2643C52.4712 11.954 52.0648 11.7989 51.5622 11.7989C51.2213 11.7989 50.911 11.8863 50.6313 12.0611C50.3516 12.2316 50.1287 12.4741 49.9626 12.7888C49.7965 13.0991 49.7135 13.4618 49.7135 13.877V20H47.3403ZM63.9081 23.7761V9.93052H66.2419V11.5957H66.3796C66.502 11.3509 66.6746 11.0909 66.8975 10.8155C67.1204 10.5358 67.4219 10.2976 67.8022 10.101C68.1824 9.89993 68.6675 9.79941 69.2575 9.79941C70.0354 9.79941 70.7369 9.99826 71.3619 10.396C71.9912 10.7893 72.4894 11.3728 72.8566 12.1463C73.228 12.9155 73.4138 13.8595 73.4138 14.9784C73.4138 16.0841 73.2324 17.0237 72.8697 17.7973C72.5069 18.5709 72.0131 19.1609 71.3881 19.5673C70.7631 19.9738 70.0551 20.177 69.2641 20.177C68.6872 20.177 68.2086 20.0809 67.8284 19.8886C67.4482 19.6963 67.1422 19.4646 66.9106 19.1937C66.6833 18.9183 66.5063 18.6583 66.3796 18.4135H66.2812V23.7761H63.9081ZM66.2354 14.9653C66.2354 15.6165 66.3271 16.1868 66.5107 16.6763C66.6986 17.1658 66.9674 17.5482 67.317 17.8235C67.671 18.0945 68.0993 18.23 68.6019 18.23C69.1264 18.23 69.5656 18.0901 69.9196 17.8104C70.2736 17.5263 70.5402 17.1396 70.7194 16.6501C70.903 16.1562 70.9948 15.5946 70.9948 14.9653C70.9948 14.3403 70.9052 13.7852 70.726 13.3001C70.5468 12.815 70.2802 12.4348 69.9262 12.1594C69.5722 11.8841 69.1308 11.7464 68.6019 11.7464C68.095 11.7464 67.6645 11.8797 67.3105 12.1463C66.9565 12.4129 66.6877 12.7866 66.5041 13.2673C66.3249 13.7481 66.2354 14.3141 66.2354 14.9653ZM77.8192 6.57403V20H75.446V6.57403H77.8192ZM84.7174 20.1967C83.7078 20.1967 82.8359 19.9869 82.1017 19.5673C81.3718 19.1434 80.8102 18.5446 80.4169 17.7711C80.0235 16.9931 79.8269 16.0775 79.8269 15.0243C79.8269 13.9885 80.0235 13.0794 80.4169 12.2971C80.8146 11.5104 81.3696 10.8986 82.082 10.4615C82.7944 10.0201 83.6313 9.79941 84.5928 9.79941C85.2134 9.79941 85.7991 9.89993 86.3497 10.101C86.9048 10.2976 87.3943 10.6036 87.8182 11.0188C88.2465 11.4339 88.583 11.9628 88.8278 12.6052C89.0725 13.2433 89.1949 14.0038 89.1949 14.8866V15.6143H80.9413V14.0147H86.9201C86.9157 13.5602 86.8174 13.1559 86.6251 12.8019C86.4328 12.4435 86.164 12.1616 85.8187 11.9562C85.4778 11.7508 85.0801 11.6481 84.6256 11.6481C84.1405 11.6481 83.7144 11.7661 83.3472 12.0021C82.9801 12.2337 82.6939 12.5397 82.4885 12.9199C82.2874 13.2958 82.1847 13.7088 82.1803 14.1589V15.5553C82.1803 16.1409 82.2874 16.6435 82.5016 17.0631C82.7157 17.4783 83.0151 17.7973 83.3997 18.0202C83.7843 18.2387 84.2344 18.348 84.7502 18.348C85.0954 18.348 85.4079 18.2999 85.6876 18.2038C85.9673 18.1032 86.2099 17.9568 86.4153 17.7645C86.6207 17.5722 86.7758 17.334 86.8807 17.05L89.0965 17.2991C88.9567 17.8847 88.6901 18.3961 88.2968 18.8331C87.9078 19.2658 87.4096 19.6023 86.8021 19.8427C86.1946 20.0787 85.4997 20.1967 84.7174 20.1967ZM95.8866 20V6.57403H104.488V8.61283H98.3187V12.2578H103.898V14.2966H98.3187V20H95.8866ZM106.598 20V9.93052H108.972V20H106.598ZM107.792 8.50139C107.416 8.50139 107.092 8.37683 106.821 8.12772C106.55 7.87423 106.415 7.57049 106.415 7.21648C106.415 6.8581 106.55 6.55436 106.821 6.30524C107.092 6.05176 107.416 5.92502 107.792 5.92502C108.172 5.92502 108.495 6.05176 108.762 6.30524C109.033 6.55436 109.168 6.8581 109.168 7.21648C109.168 7.57049 109.033 7.87423 108.762 8.12772C108.495 8.37683 108.172 8.50139 107.792 8.50139ZM113.785 14.0999V20H111.412V9.93052H113.68V11.6415H113.798C114.03 11.0778 114.399 10.6298 114.906 10.2976C115.417 9.96548 116.049 9.79941 116.801 9.79941C117.496 9.79941 118.101 9.948 118.617 10.2452C119.137 10.5424 119.539 10.9729 119.823 11.5367C120.111 12.1004 120.253 12.7844 120.249 13.5886V20H117.876V13.9557C117.876 13.2826 117.701 12.756 117.351 12.3758C117.006 11.9956 116.528 11.8054 115.916 11.8054C115.501 11.8054 115.131 11.8972 114.808 12.0808C114.489 12.26 114.237 12.52 114.054 12.8609C113.875 13.2018 113.785 13.6148 113.785 14.0999ZM125.559 20.2032C124.921 20.2032 124.346 20.0896 123.835 19.8623C123.328 19.6307 122.926 19.2898 122.629 18.8396C122.336 18.3895 122.189 17.8344 122.189 17.1745C122.189 16.6064 122.294 16.1365 122.504 15.765C122.714 15.3936 123 15.0964 123.363 14.8735C123.726 14.6506 124.134 14.4823 124.589 14.3687C125.048 14.2507 125.522 14.1655 126.011 14.113C126.601 14.0518 127.08 13.9972 127.447 13.9491C127.814 13.8967 128.081 13.818 128.247 13.7131C128.417 13.6039 128.503 13.4356 128.503 13.2083V13.169C128.503 12.6752 128.356 12.2927 128.063 12.0218C127.771 11.7508 127.349 11.6153 126.798 11.6153C126.217 11.6153 125.756 11.7421 125.415 11.9956C125.078 12.249 124.851 12.5484 124.733 12.8937L122.517 12.579C122.692 11.9671 122.981 11.4558 123.383 11.045C123.785 10.6298 124.276 10.3195 124.858 10.1141C125.439 9.9043 126.081 9.79941 126.785 9.79941C127.27 9.79941 127.753 9.85622 128.234 9.96985C128.715 10.0835 129.154 10.2714 129.551 10.5336C129.949 10.7915 130.268 11.1433 130.509 11.5891C130.753 12.0349 130.876 12.5921 130.876 13.2608V20H128.594V18.6168H128.516C128.371 18.8965 128.168 19.1587 127.906 19.4034C127.648 19.6438 127.323 19.8383 126.929 19.9869C126.54 20.1311 126.084 20.2032 125.559 20.2032ZM126.175 18.4594C126.652 18.4594 127.065 18.3655 127.414 18.1775C127.764 17.9852 128.033 17.7317 128.221 17.4171C128.413 17.1024 128.509 16.7593 128.509 16.3878V15.2013C128.435 15.2624 128.308 15.3193 128.129 15.3717C127.954 15.4242 127.757 15.47 127.539 15.5094C127.32 15.5487 127.104 15.5837 126.89 15.6143C126.676 15.6449 126.49 15.6711 126.333 15.6929C125.979 15.741 125.662 15.8197 125.382 15.9289C125.102 16.0382 124.882 16.1912 124.72 16.3878C124.558 16.5801 124.477 16.8293 124.477 17.1352C124.477 17.5722 124.637 17.9022 124.956 18.1251C125.275 18.348 125.681 18.4594 126.175 18.4594ZM135.635 14.0999V20H133.262V9.93052H135.53V11.6415H135.648C135.88 11.0778 136.249 10.6298 136.756 10.2976C137.267 9.96548 137.899 9.79941 138.651 9.79941C139.346 9.79941 139.951 9.948 140.467 10.2452C140.987 10.5424 141.389 10.9729 141.673 11.5367C141.961 12.1004 142.103 12.7844 142.099 13.5886V20H139.726V13.9557C139.726 13.2826 139.551 12.756 139.201 12.3758C138.856 11.9956 138.378 11.8054 137.766 11.8054C137.351 11.8054 136.981 11.8972 136.658 12.0808C136.339 12.26 136.087 12.52 135.904 12.8609C135.725 13.2018 135.635 13.6148 135.635 14.0999ZM148.904 20.1967C147.899 20.1967 147.035 19.976 146.314 19.5345C145.598 19.0931 145.045 18.4835 144.656 17.7055C144.271 16.9232 144.079 16.0229 144.079 15.0046C144.079 13.9819 144.275 13.0794 144.669 12.2971C145.062 11.5104 145.617 10.8986 146.334 10.4615C147.055 10.0201 147.907 9.79941 148.891 9.79941C149.708 9.79941 150.431 9.95019 151.061 10.2517C151.694 10.5489 152.199 10.9707 152.575 11.517C152.951 12.0589 153.165 12.6926 153.217 13.4181H150.949C150.857 12.933 150.639 12.5287 150.294 12.2053C149.953 11.8775 149.496 11.7137 148.923 11.7137C148.438 11.7137 148.012 11.8448 147.645 12.107C147.278 12.3649 146.992 12.7363 146.786 13.2215C146.585 13.7066 146.485 14.2878 146.485 14.9653C146.485 15.6514 146.585 16.2414 146.786 16.7353C146.987 17.2248 147.269 17.6028 147.632 17.8694C147.999 18.1316 148.43 18.2628 148.923 18.2628C149.273 18.2628 149.586 18.1972 149.861 18.0661C150.141 17.9306 150.374 17.7361 150.562 17.4826C150.75 17.2291 150.879 16.921 150.949 16.5583H153.217C153.161 17.2707 152.951 17.9022 152.588 18.4529C152.225 18.9992 151.731 19.4275 151.106 19.7378C150.481 20.0437 149.747 20.1967 148.904 20.1967ZM159.624 20.1967C158.614 20.1967 157.742 19.9869 157.008 19.5673C156.278 19.1434 155.717 18.5446 155.323 17.7711C154.93 16.9931 154.733 16.0775 154.733 15.0243C154.733 13.9885 154.93 13.0794 155.323 12.2971C155.721 11.5104 156.276 10.8986 156.989 10.4615C157.701 10.0201 158.538 9.79941 159.499 9.79941C160.12 9.79941 160.706 9.89993 161.256 10.101C161.811 10.2976 162.301 10.6036 162.725 11.0188C163.153 11.4339 163.49 11.9628 163.734 12.6052C163.979 13.2433 164.101 14.0038 164.101 14.8866V15.6143H155.848V14.0147H161.827C161.822 13.5602 161.724 13.1559 161.532 12.8019C161.339 12.4435 161.07 12.1616 160.725 11.9562C160.384 11.7508 159.987 11.6481 159.532 11.6481C159.047 11.6481 158.621 11.7661 158.254 12.0021C157.887 12.2337 157.6 12.5397 157.395 12.9199C157.194 13.2958 157.091 13.7088 157.087 14.1589V15.5553C157.087 16.1409 157.194 16.6435 157.408 17.0631C157.622 17.4783 157.922 17.7973 158.306 18.0202C158.691 18.2387 159.141 18.348 159.657 18.348C160.002 18.348 160.314 18.2999 160.594 18.2038C160.874 18.1032 161.116 17.9568 161.322 17.7645C161.527 17.5722 161.682 17.334 161.787 17.05L164.003 17.2991C163.863 17.8847 163.597 18.3961 163.203 18.8331C162.814 19.2658 162.316 19.6023 161.709 19.8427C161.101 20.0787 160.406 20.1967 159.624 20.1967Z" fill="white"/>
</svg>
