<svg width="166" height="26" viewBox="0 0 166 26" fill="none" xmlns="http://www.w3.org/2000/svg">
<path d="M6.17028 20.53C4.48614 20.0928 3.09349 19.1859 1.99232 17.8095C0.891159 16.433 0.340576 14.8299 0.340576 13C0.340576 11.1701 0.891159 9.56694 1.99232 8.19048C3.09349 6.81402 4.48614 5.90718 6.17028 5.46996V7.51035C5.02053 7.899 4.08519 8.59532 3.36425 9.59933C2.64331 10.6033 2.28316 11.7369 2.28381 13C2.28381 14.2631 2.64428 15.3966 3.36522 16.4006C4.08616 17.4046 5.02118 18.101 6.17028 18.4896V20.53ZM13.9432 20.7729C11.7895 20.7729 9.95537 20.016 8.44094 18.5022C6.92652 16.9885 6.16963 15.1544 6.17028 13C6.17028 10.8462 6.92716 9.01214 8.44094 7.49772C9.95472 5.98329 11.7888 5.2264 13.9432 5.22705C15.012 5.22705 16.016 5.42947 16.9552 5.83431C17.8944 6.23915 18.7203 6.79783 19.4328 7.51035L18.0726 8.87061C17.5382 8.33622 16.9189 7.91908 16.2148 7.61917C15.5107 7.31927 14.7535 7.16964 13.9432 7.17028C12.3238 7.17028 10.9474 7.73706 9.81384 8.87061C8.68028 10.0042 8.11351 11.3806 8.11351 13C8.11351 14.6193 8.68028 15.9958 9.81384 17.1294C10.9474 18.2629 12.3238 18.8297 13.9432 18.8297C14.7529 18.8297 15.5098 18.6797 16.2139 18.3798C16.918 18.0799 17.5375 17.6631 18.0726 17.1294L19.4328 18.4896C18.7203 19.2021 17.8944 19.7608 16.9552 20.1657C16.016 20.5705 15.012 20.7729 13.9432 20.7729ZM19.7729 16.8864L18.4126 15.5262L19.9672 13.9716H12.9716V12.0284H19.9672L18.4126 10.4738L19.7729 9.11352L23.6594 13L19.7729 16.8864Z" fill="#55D562"/>
<path d="M38.2801 10.2649C38.2189 9.69233 37.9611 9.24655 37.5065 8.92751C37.0564 8.60846 36.4707 8.44894 35.7496 8.44894C35.2427 8.44894 34.8078 8.52543 34.445 8.67839C34.0823 8.83136 33.8048 9.03895 33.6125 9.30118C33.4202 9.5634 33.3218 9.86278 33.3175 10.1993C33.3175 10.479 33.3808 10.7216 33.5076 10.927C33.6387 11.1324 33.8157 11.3072 34.0386 11.4514C34.2615 11.5913 34.5084 11.7093 34.7794 11.8054C35.0504 11.9016 35.3235 11.9824 35.5988 12.048L36.8575 12.3627C37.3645 12.4807 37.8518 12.6402 38.3194 12.8412C38.7914 13.0423 39.2132 13.2958 39.5847 13.6017C39.9605 13.9076 40.2577 14.2769 40.4762 14.7096C40.6948 15.1423 40.804 15.6492 40.804 16.2305C40.804 17.0172 40.603 17.7099 40.2009 18.3086C39.7988 18.903 39.2176 19.3685 38.4571 19.705C37.701 20.0371 36.7854 20.2032 35.7103 20.2032C34.6658 20.2032 33.7589 20.0415 32.9897 19.7181C32.2249 19.3947 31.6261 18.9227 31.1934 18.3021C30.7651 17.6815 30.5335 16.9254 30.4985 16.0338H32.8914C32.9263 16.5015 33.0705 16.8904 33.324 17.2007C33.5775 17.511 33.9075 17.7427 34.3139 17.8956C34.7248 18.0486 35.1837 18.1251 35.6906 18.1251C36.2194 18.1251 36.6827 18.0464 37.0804 17.8891C37.4825 17.7274 37.7972 17.5045 38.0244 17.2204C38.2517 16.932 38.3675 16.5954 38.3719 16.2108C38.3675 15.8612 38.2648 15.5728 38.0638 15.3455C37.8627 15.1139 37.5808 14.9216 37.2181 14.7686C36.8597 14.6113 36.4402 14.4714 35.9594 14.349L34.4319 13.9557C33.3262 13.6716 32.4521 13.2411 31.8097 12.6642C31.1716 12.083 30.8526 11.3116 30.8526 10.3501C30.8526 9.55903 31.0667 8.86632 31.495 8.27194C31.9277 7.67756 32.5155 7.21648 33.2585 6.8887C34.0015 6.55655 34.8428 6.39047 35.7824 6.39047C36.7352 6.39047 37.5699 6.55655 38.2867 6.8887C39.0078 7.21648 39.5738 7.67319 39.9846 8.25883C40.3954 8.8401 40.6074 9.50877 40.6205 10.2649H38.2801ZM42.8674 20V9.93052H45.2406V20H42.8674ZM44.0605 8.50139C43.6847 8.50139 43.3613 8.37683 43.0903 8.12772C42.8193 7.87423 42.6839 7.57049 42.6839 7.21648C42.6839 6.8581 42.8193 6.55436 43.0903 6.30524C43.3613 6.05176 43.6847 5.92502 44.0605 5.92502C44.4408 5.92502 44.7642 6.05176 45.0308 6.30524C45.3018 6.55436 45.4372 6.8581 45.4372 7.21648C45.4372 7.57049 45.3018 7.87423 45.0308 8.12772C44.7642 8.37683 44.4408 8.50139 44.0605 8.50139ZM47.6809 20V9.93052H49.9492V11.6415H50.0672C50.2769 11.0646 50.6244 10.6145 51.1095 10.2911C51.5946 9.9633 52.1737 9.79941 52.8468 9.79941C53.5285 9.79941 54.1033 9.96548 54.5709 10.2976C55.0429 10.6254 55.3751 11.0734 55.5674 11.6415H55.6722C55.8951 11.0821 56.271 10.6363 56.7998 10.3042C57.333 9.96767 57.9645 9.79941 58.6944 9.79941C59.6209 9.79941 60.377 10.0922 60.9627 10.6779C61.5483 11.2635 61.8411 12.1179 61.8411 13.2411V20H59.4614V13.6082C59.4614 12.9833 59.2953 12.5266 58.9632 12.2381C58.631 11.9453 58.2246 11.7989 57.7438 11.7989C57.1713 11.7989 56.7233 11.9781 56.3999 12.3364C56.0809 12.6904 55.9214 13.1515 55.9214 13.7197V20H53.5941V13.5099C53.5941 12.9898 53.4368 12.5746 53.1221 12.2643C52.8118 11.954 52.4053 11.7989 51.9027 11.7989C51.5619 11.7989 51.2516 11.8863 50.9718 12.0611C50.6921 12.2316 50.4692 12.4741 50.3032 12.7888C50.1371 13.0991 50.0541 13.4618 50.0541 13.877V20H47.6809ZM64.2487 23.7761V9.93052H66.5825V11.5957H66.7202C66.8425 11.3509 67.0152 11.0909 67.2381 10.8155C67.4609 10.5358 67.7625 10.2976 68.1427 10.101C68.523 9.89993 69.0081 9.79941 69.5981 9.79941C70.376 9.79941 71.0775 9.99826 71.7024 10.396C72.3318 10.7893 72.83 11.3728 73.1971 12.1463C73.5686 12.9155 73.7544 13.8595 73.7544 14.9784C73.7544 16.0841 73.573 17.0237 73.2102 17.7973C72.8475 18.5709 72.3536 19.1609 71.7287 19.5673C71.1037 19.9738 70.3957 20.177 69.6046 20.177C69.0277 20.177 68.5492 20.0809 68.169 19.8886C67.7887 19.6963 67.4828 19.4646 67.2512 19.1937C67.0239 18.9183 66.8469 18.6583 66.7202 18.4135H66.6218V23.7761H64.2487ZM66.5759 14.9653C66.5759 15.6165 66.6677 16.1868 66.8513 16.6763C67.0392 17.1658 67.308 17.5482 67.6576 17.8235C68.0116 18.0945 68.4399 18.23 68.9425 18.23C69.467 18.23 69.9062 18.0901 70.2602 17.8104C70.6142 17.5263 70.8808 17.1396 71.06 16.6501C71.2436 16.1562 71.3353 15.5946 71.3353 14.9653C71.3353 14.3403 71.2457 13.7852 71.0666 13.3001C70.8874 12.815 70.6208 12.4348 70.2668 12.1594C69.9128 11.8841 69.4713 11.7464 68.9425 11.7464C68.4356 11.7464 68.0051 11.8797 67.6511 12.1463C67.2971 12.4129 67.0283 12.7866 66.8447 13.2673C66.6655 13.7481 66.5759 14.3141 66.5759 14.9653ZM78.1598 6.57403V20H75.7866V6.57403H78.1598ZM85.0579 20.1967C84.0484 20.1967 83.1765 19.9869 82.4422 19.5673C81.7124 19.1434 81.1508 18.5446 80.7574 17.7711C80.3641 16.9931 80.1674 16.0775 80.1674 15.0243C80.1674 13.9885 80.3641 13.0794 80.7574 12.2971C81.1552 11.5104 81.7102 10.8986 82.4226 10.4615C83.135 10.0201 83.9719 9.79941 84.9334 9.79941C85.554 9.79941 86.1396 9.89993 86.6903 10.101C87.2454 10.2976 87.7348 10.6036 88.1588 11.0188C88.5871 11.4339 88.9236 11.9628 89.1683 12.6052C89.4131 13.2433 89.5355 14.0038 89.5355 14.8866V15.6143H81.2819V14.0147H87.2606C87.2563 13.5602 87.1579 13.1559 86.9656 12.8019C86.7733 12.4435 86.5046 12.1616 86.1593 11.9562C85.8184 11.7508 85.4207 11.6481 84.9662 11.6481C84.4811 11.6481 84.0549 11.7661 83.6878 12.0021C83.3207 12.2337 83.0344 12.5397 82.829 12.9199C82.628 13.2958 82.5253 13.7088 82.5209 14.1589V15.5553C82.5209 16.1409 82.628 16.6435 82.8421 17.0631C83.0563 17.4783 83.3557 17.7973 83.7403 18.0202C84.1249 18.2387 84.575 18.348 85.0907 18.348C85.436 18.348 85.7485 18.2999 86.0282 18.2038C86.3079 18.1032 86.5505 17.9568 86.7559 17.7645C86.9613 17.5722 87.1164 17.334 87.2213 17.05L89.4371 17.2991C89.2973 17.8847 89.0307 18.3961 88.6373 18.8331C88.2484 19.2658 87.7501 19.6023 87.1426 19.8427C86.5352 20.0787 85.8403 20.1967 85.0579 20.1967ZM96.2271 20V6.57403H104.828V8.61283H98.6593V12.2578H104.238V14.2966H98.6593V20H96.2271ZM106.939 20V9.93052H109.312V20H106.939ZM108.132 8.50139C107.756 8.50139 107.433 8.37683 107.162 8.12772C106.891 7.87423 106.756 7.57049 106.756 7.21648C106.756 6.8581 106.891 6.55436 107.162 6.30524C107.433 6.05176 107.756 5.92502 108.132 5.92502C108.512 5.92502 108.836 6.05176 109.102 6.30524C109.373 6.55436 109.509 6.8581 109.509 7.21648C109.509 7.57049 109.373 7.87423 109.102 8.12772C108.836 8.37683 108.512 8.50139 108.132 8.50139ZM114.126 14.0999V20H111.753V9.93052H114.021V11.6415H114.139C114.37 11.0778 114.74 10.6298 115.247 10.2976C115.758 9.96548 116.39 9.79941 117.141 9.79941C117.836 9.79941 118.442 9.948 118.957 10.2452C119.477 10.5424 119.879 10.9729 120.163 11.5367C120.452 12.1004 120.594 12.7844 120.59 13.5886V20H118.216V13.9557C118.216 13.2826 118.042 12.756 117.692 12.3758C117.347 11.9956 116.868 11.8054 116.256 11.8054C115.841 11.8054 115.472 11.8972 115.148 12.0808C114.829 12.26 114.578 12.52 114.394 12.8609C114.215 13.2018 114.126 13.6148 114.126 14.0999ZM125.9 20.2032C125.262 20.2032 124.687 20.0896 124.176 19.8623C123.669 19.6307 123.266 19.2898 122.969 18.8396C122.676 18.3895 122.53 17.8344 122.53 17.1745C122.53 16.6064 122.635 16.1365 122.845 15.765C123.055 15.3936 123.341 15.0964 123.704 14.8735C124.066 14.6506 124.475 14.4823 124.929 14.3687C125.388 14.2507 125.863 14.1655 126.352 14.113C126.942 14.0518 127.421 13.9972 127.788 13.9491C128.155 13.8967 128.421 13.818 128.587 13.7131C128.758 13.6039 128.843 13.4356 128.843 13.2083V13.169C128.843 12.6752 128.697 12.2927 128.404 12.0218C128.111 11.7508 127.689 11.6153 127.139 11.6153C126.557 11.6153 126.096 11.7421 125.755 11.9956C125.419 12.249 125.192 12.5484 125.074 12.8937L122.858 12.579C123.033 11.9671 123.321 11.4558 123.723 11.045C124.125 10.6298 124.617 10.3195 125.198 10.1141C125.779 9.9043 126.422 9.79941 127.126 9.79941C127.611 9.79941 128.094 9.85622 128.574 9.96985C129.055 10.0835 129.494 10.2714 129.892 10.5336C130.29 10.7915 130.609 11.1433 130.849 11.5891C131.094 12.0349 131.216 12.5921 131.216 13.2608V20H128.935V18.6168H128.856C128.712 18.8965 128.509 19.1587 128.247 19.4034C127.989 19.6438 127.663 19.8383 127.27 19.9869C126.881 20.1311 126.424 20.2032 125.9 20.2032ZM126.516 18.4594C126.992 18.4594 127.405 18.3655 127.755 18.1775C128.105 17.9852 128.373 17.7317 128.561 17.4171C128.754 17.1024 128.85 16.7593 128.85 16.3878V15.2013C128.775 15.2624 128.649 15.3193 128.469 15.3717C128.295 15.4242 128.098 15.47 127.879 15.5094C127.661 15.5487 127.445 15.5837 127.23 15.6143C127.016 15.6449 126.831 15.6711 126.673 15.6929C126.319 15.741 126.002 15.8197 125.723 15.9289C125.443 16.0382 125.222 16.1912 125.061 16.3878C124.899 16.5801 124.818 16.8293 124.818 17.1352C124.818 17.5722 124.977 17.9022 125.297 18.1251C125.616 18.348 126.022 18.4594 126.516 18.4594ZM135.976 14.0999V20H133.603V9.93052H135.871V11.6415H135.989C136.22 11.0778 136.59 10.6298 137.097 10.2976C137.608 9.96548 138.24 9.79941 138.991 9.79941C139.686 9.79941 140.291 9.948 140.807 10.2452C141.327 10.5424 141.729 10.9729 142.013 11.5367C142.302 12.1004 142.444 12.7844 142.44 13.5886V20H140.066V13.9557C140.066 13.2826 139.892 12.756 139.542 12.3758C139.197 11.9956 138.718 11.8054 138.106 11.8054C137.691 11.8054 137.322 11.8972 136.998 12.0808C136.679 12.26 136.428 12.52 136.244 12.8609C136.065 13.2018 135.976 13.6148 135.976 14.0999ZM149.244 20.1967C148.239 20.1967 147.376 19.976 146.655 19.5345C145.938 19.0931 145.385 18.4835 144.996 17.7055C144.612 16.9232 144.419 16.0229 144.419 15.0046C144.419 13.9819 144.616 13.0794 145.009 12.2971C145.403 11.5104 145.958 10.8986 146.675 10.4615C147.396 10.0201 148.248 9.79941 149.231 9.79941C150.048 9.79941 150.772 9.95019 151.401 10.2517C152.035 10.5489 152.54 10.9707 152.915 11.517C153.291 12.0589 153.506 12.6926 153.558 13.4181H151.29C151.198 12.933 150.979 12.5287 150.634 12.2053C150.293 11.8775 149.837 11.7137 149.264 11.7137C148.779 11.7137 148.353 11.8448 147.986 12.107C147.619 12.3649 147.332 12.7363 147.127 13.2215C146.926 13.7066 146.825 14.2878 146.825 14.9653C146.825 15.6514 146.926 16.2414 147.127 16.7353C147.328 17.2248 147.61 17.6028 147.973 17.8694C148.34 18.1316 148.77 18.2628 149.264 18.2628C149.614 18.2628 149.926 18.1972 150.201 18.0661C150.481 17.9306 150.715 17.7361 150.903 17.4826C151.091 17.2291 151.22 16.921 151.29 16.5583H153.558C153.501 17.2707 153.291 17.9022 152.929 18.4529C152.566 18.9992 152.072 19.4275 151.447 19.7378C150.822 20.0437 150.088 20.1967 149.244 20.1967ZM159.964 20.1967C158.955 20.1967 158.083 19.9869 157.349 19.5673C156.619 19.1434 156.057 18.5446 155.664 17.7711C155.271 16.9931 155.074 16.0775 155.074 15.0243C155.074 13.9885 155.271 13.0794 155.664 12.2971C156.062 11.5104 156.617 10.8986 157.329 10.4615C158.041 10.0201 158.878 9.79941 159.84 9.79941C160.46 9.79941 161.046 9.89993 161.597 10.101C162.152 10.2976 162.641 10.6036 163.065 11.0188C163.494 11.4339 163.83 11.9628 164.075 12.6052C164.32 13.2433 164.442 14.0038 164.442 14.8866V15.6143H156.188V14.0147H162.167C162.163 13.5602 162.064 13.1559 161.872 12.8019C161.68 12.4435 161.411 12.1616 161.066 11.9562C160.725 11.7508 160.327 11.6481 159.873 11.6481C159.388 11.6481 158.961 11.7661 158.594 12.0021C158.227 12.2337 157.941 12.5397 157.736 12.9199C157.534 13.2958 157.432 13.7088 157.427 14.1589V15.5553C157.427 16.1409 157.534 16.6435 157.749 17.0631C157.963 17.4783 158.262 17.7973 158.647 18.0202C159.031 18.2387 159.482 18.348 159.997 18.348C160.342 18.348 160.655 18.2999 160.935 18.2038C161.214 18.1032 161.457 17.9568 161.662 17.7645C161.868 17.5722 162.023 17.334 162.128 17.05L164.344 17.2991C164.204 17.8847 163.937 18.3961 163.544 18.8331C163.155 19.2658 162.657 19.6023 162.049 19.8427C161.442 20.0787 160.747 20.1967 159.964 20.1967Z" fill="white"/>
</svg>
