<svg width="330" height="285" viewBox="0 0 330 285" fill="none" xmlns="http://www.w3.org/2000/svg">
<g clip-path="url(#clip0_251_345)">
<path d="M280.381 48.3094C258.502 25.8694 228.294 10.894 197.829 3.93761C193.429 2.92561 188.998 2.04561 184.536 1.29761C116.965 -10.1138 75.656 49.9 63.6704 75.8248C51.6848 101.75 20.183 157.896 20.6384 191.226C21.0938 224.556 91.4036 282.966 163.99 284.814C236.577 286.662 293.654 246.923 305.976 184.83C311.177 158.655 316.536 130.928 310.946 104.35C306.326 82.339 295.284 63.595 280.381 48.3094Z" fill="#55D462"/>
<path opacity="0.7" d="M280.381 48.3094C258.502 25.8694 228.294 10.894 197.829 3.93761C193.429 2.92561 188.998 2.04561 184.536 1.29761C116.965 -10.1138 75.656 49.9 63.6704 75.8248C51.6848 101.75 20.183 157.896 20.6384 191.226C21.0938 224.556 91.4036 282.966 163.99 284.814C236.577 286.662 293.654 246.923 305.976 184.83C311.177 158.655 316.536 130.928 310.946 104.35C306.326 82.339 295.284 63.595 280.381 48.3094Z" fill="white"/>
<g opacity="0.15">
<path d="M41.9298 183.22C45.6456 183.339 53.3082 180.085 53.3148 180.085C53.3214 180.085 49.632 175.683 49.3548 175.465C46.2462 172.594 38.544 168.865 34.4124 171.195C31.4358 172.878 30.9408 176.719 32.8284 179.399C34.716 182.078 38.7684 183.088 41.9298 183.22Z" fill="black"/>
<path d="M53.5195 204.525C56.9911 203.7 63.0961 198.948 63.5779 198.585C66.2883 202.076 69.2274 205.383 72.3757 208.485C74.2039 210.306 76.0981 212.082 78.0187 213.837C77.0221 213.177 76.1245 212.577 75.9925 212.517C72.2305 210.57 63.8221 209.006 60.4561 212.346C58.0273 214.748 58.5619 218.589 61.1161 220.675C63.6703 222.761 67.8283 222.721 70.9039 221.995C73.9795 221.269 79.3057 217.302 80.6917 216.24L82.9225 218.22C86.5063 221.401 90.0901 224.562 93.5155 227.77C94.7233 228.905 95.8717 230.06 97.0267 231.215C96.1423 230.621 95.3899 230.126 95.2645 230.06C91.5091 228.08 83.1007 226.549 79.7281 229.889C77.2993 232.291 77.8405 236.132 80.3881 238.218C82.9357 240.303 87.0937 240.264 90.1693 239.538C93.2449 238.812 98.0893 235.228 99.7129 233.974C100.861 235.188 102.01 236.409 103.059 237.637C103.765 238.495 104.498 239.274 105.151 240.171L107.131 242.778C108.333 244.481 109.586 246.23 110.715 247.92C111.507 249.088 112.246 250.223 112.985 251.358C111.798 250.217 109.428 248.058 109.204 247.874C105.785 245.379 97.7131 242.594 93.8719 245.352C91.1131 247.332 91.0603 251.24 93.2449 253.682C95.4295 256.124 99.5611 256.724 102.716 256.46C106.188 256.176 112.688 252.586 113.5 252.131C114.728 254.012 115.903 255.853 116.979 257.615C117.955 259.186 118.853 260.684 119.704 262.123L122.463 261.027C121.5 259.463 120.483 257.833 119.354 256.11C118.12 254.196 116.761 252.15 115.342 250.104C117.077 248.459 118.712 246.711 120.239 244.871C123.466 246.415 130.383 246.976 131.274 247.042C131.274 249.286 131.221 251.471 131.155 253.536C131.109 254.955 131.056 256.315 130.997 257.628L133.921 256.467C133.921 255.53 133.954 254.579 133.96 253.589C133.96 251.312 133.96 248.87 133.96 246.369C134.858 246.21 142.19 244.89 145.068 242.917C147.675 241.128 150.5 238.125 150.658 234.779C150.817 231.433 148.322 228.529 144.91 228.72C140.171 228.978 135.67 236.258 134.614 240.356C134.548 240.6 134.152 243.3 133.954 244.976C133.954 243.953 133.954 242.963 133.881 241.907C133.828 239.828 133.71 237.749 133.591 235.518C133.492 234.436 133.399 233.354 133.3 232.251C133.201 231.149 133.01 230.014 132.871 228.885C132.489 226.245 131.974 223.652 131.399 221.012C133.221 220.959 139.696 220.675 142.554 219.296C145.411 217.916 148.652 215.382 149.312 212.095C149.972 208.808 147.952 205.568 144.547 205.238C139.828 204.776 134.29 211.296 132.607 215.184C132.502 215.421 131.611 218.345 131.149 219.962C130.792 218.378 130.442 216.801 130.027 215.21C128.825 210.63 127.472 206.023 126.139 201.429C125.73 200.017 125.341 198.611 124.945 197.205C125.605 197.205 133.294 197.014 136.501 195.47C139.353 194.097 142.6 191.556 143.26 188.276C143.92 184.995 141.9 181.748 138.494 181.418C133.775 180.956 128.238 187.47 126.555 191.358C126.43 191.648 125.149 195.859 124.872 196.948C124.001 193.846 123.163 190.744 122.463 187.655C121.492 183.49 120.793 179.266 120.371 175.01C120.668 175.01 128.707 174.864 131.993 173.28C134.838 171.908 138.092 169.367 138.745 166.08C139.399 162.793 137.386 159.552 133.987 159.222C129.268 158.76 123.73 165.281 122.047 169.162C121.915 169.472 120.536 174 120.344 174.838C120.344 174.594 120.272 174.336 120.252 174.092C119.947 169.813 120.022 165.515 120.476 161.249C120.701 158.886 121.044 156.629 121.427 154.47C122.925 154.596 129.789 155.097 132.898 154.002C135.881 152.946 139.392 150.781 140.402 147.587C141.412 144.392 139.742 140.947 136.442 140.247C131.822 139.271 125.585 145.138 123.486 148.827C123.367 149.025 122.437 151.184 121.777 152.787C121.961 151.811 122.14 150.807 122.338 149.864C123.077 146.352 123.968 143.184 124.78 140.386C125.255 138.795 125.717 137.37 126.159 136.043C127.697 135.383 133.855 132.743 136.059 130.361C138.263 127.978 140.336 124.513 139.768 121.213C139.201 117.913 136.138 115.616 132.851 116.527C128.284 117.801 125.466 125.879 125.301 130.11C125.301 130.473 125.71 136.221 125.789 136.188L125.889 136.149C125.433 137.423 124.958 138.789 124.476 140.294C123.598 143.085 122.635 146.234 121.836 149.745C120.914 153.515 120.213 157.337 119.737 161.189C119.184 165.5 119.014 169.851 119.229 174.191C119.229 174.237 119.229 174.29 119.229 174.343C118.741 173.023 117.249 169.459 117.097 169.195C115.038 165.492 108.887 159.552 104.234 160.476C100.881 161.136 99.2113 164.641 100.175 167.776C101.138 170.911 104.636 173.188 107.606 174.27C110.959 175.491 118.668 174.897 119.282 174.851C119.614 179.261 120.238 183.645 121.15 187.972C121.671 190.5 122.272 193.028 122.905 195.549C122.443 194.44 122.021 193.45 121.948 193.318C119.889 189.615 113.738 183.682 109.085 184.606C105.732 185.266 104.062 188.771 105.026 191.866C105.99 194.961 109.487 197.278 112.457 198.36C115.427 199.443 122.061 199.086 123.796 198.968C124.054 199.931 124.291 200.901 124.549 201.865C125.783 206.485 127.03 211.105 128.119 215.679C128.502 217.289 128.825 218.886 129.149 220.484C128.74 219.5 128.383 218.675 128.317 218.556C126.258 214.854 120.1 208.914 115.454 209.838C112.101 210.498 110.431 214.002 111.388 217.137C112.345 220.272 115.856 222.543 118.826 223.632C121.796 224.721 127.783 224.391 129.855 224.252C130.139 225.902 130.423 227.552 130.621 229.163C130.733 230.258 130.918 231.314 130.97 232.423C131.023 233.532 131.116 234.614 131.188 235.723C131.254 237.802 131.327 239.954 131.34 241.986C131.34 243.399 131.34 244.745 131.34 246.105C130.977 244.501 130.198 241.373 130.106 241.115C128.681 237.675 126.397 234.657 123.473 232.35C123.327 231.96 123.148 231.582 122.938 231.222C121.262 228.41 117.546 227.301 114.8 229.341C110.999 232.166 111.27 240.719 112.636 244.725C112.715 244.963 113.877 247.431 114.616 248.976C114.035 248.138 113.48 247.313 112.867 246.455C111.672 244.752 110.425 243.082 109.098 241.287L107.052 238.726C106.392 237.855 105.58 237.017 104.841 236.152C103.079 234.172 101.204 232.278 99.2707 230.403C100.762 229.347 105.996 225.539 107.626 222.813C109.257 220.088 110.55 216.18 109.289 213.078C108.029 209.976 104.551 208.386 101.534 209.983C97.3435 212.207 96.3205 220.695 97.0597 224.866C97.1059 225.123 97.9705 228.06 98.4787 229.658C97.3105 228.542 96.1423 227.414 94.9213 226.318C91.3969 223.157 87.7273 220.061 84.0775 216.966C82.9621 216.015 81.8599 215.052 80.7775 214.101C81.3121 213.732 87.6415 209.336 89.4631 206.28C91.0801 203.561 92.3869 199.68 91.1263 196.552C89.8657 193.424 86.3875 191.853 83.3713 193.457C79.1803 195.674 78.1573 204.168 78.8965 208.333C78.9493 208.65 80.2165 212.867 80.5795 213.923C78.1375 211.818 75.7285 209.699 73.4383 207.508C70.3322 204.569 67.4199 201.432 64.7197 198.116C64.9705 197.945 71.5903 193.391 73.4581 190.256C75.0751 187.543 76.3819 183.656 75.1213 180.527C73.8607 177.399 70.3825 175.835 67.3663 177.432C63.1753 179.649 62.1523 188.144 62.8915 192.315C62.9509 192.638 64.2973 197.179 64.6009 197.984C64.4491 197.786 64.2643 197.608 64.1125 197.41C61.4957 194.01 59.1876 190.383 57.2155 186.573C56.1001 184.481 55.1497 182.421 54.2653 180.395C55.5853 179.676 61.5847 176.31 63.5779 173.676C65.4853 171.155 67.2145 167.413 66.3037 164.192C65.3929 160.971 62.1061 159.005 58.9315 160.232C54.5227 161.981 52.5757 170.31 52.8529 174.534C52.8529 174.765 53.2753 177.082 53.5987 178.765C53.2159 177.848 52.8067 176.904 52.4569 176.013C51.1369 172.68 50.1271 169.545 49.2625 166.773C48.7807 165.182 48.3781 163.737 48.0217 162.384C48.9457 160.998 52.6417 155.375 53.1499 152.18C53.6581 148.986 53.4931 144.92 51.1699 142.505C48.8467 140.089 45.0583 139.865 42.8209 142.412C39.7123 145.996 41.8177 154.292 44.0089 157.909C44.2003 158.219 47.7313 162.773 47.7775 162.701L47.8303 162.621C48.1537 163.941 48.4903 165.334 48.9391 166.859C49.7509 169.664 50.6881 172.832 51.9421 176.204C53.2513 179.857 54.7742 183.429 56.5027 186.903C58.4152 190.805 60.6725 194.529 63.2479 198.03C63.2479 198.07 63.3205 198.11 63.3469 198.149C62.2249 197.337 58.9975 195.173 58.7269 195.034C54.9715 193.054 46.5631 191.523 43.1905 194.862C40.7617 197.265 41.3029 201.099 43.8505 203.185C46.3981 205.271 50.4439 205.264 53.5195 204.525Z" fill="black"/>
<path d="M120.826 153.744C120.912 153.744 120.166 148.042 120.1 147.692C119.09 143.58 114.728 136.221 109.995 135.885C106.59 135.647 104.055 138.578 104.154 141.825C104.253 145.072 107.025 148.22 109.606 150.055C112.635 152.233 120.819 153.744 120.826 153.744Z" fill="black"/>
</g>
<g opacity="0.15">
<path d="M307.23 160.602C303.805 162.041 295.489 161.724 295.482 161.724C295.476 161.724 297.35 156.299 297.515 155.975C299.403 152.18 305.27 145.963 309.963 146.669C313.342 147.177 315.17 150.596 314.358 153.771C313.546 156.945 310.147 159.381 307.23 160.602Z" fill="black"/>
<path d="M211.926 165.657C215.226 165.578 221.456 162.668 222.816 162.014C223.945 163.908 225.067 165.888 226.116 168.014C228.058 171.832 229.655 175.817 230.888 179.92C230.96 180.158 231 180.408 231.066 180.653C230.591 179.933 227.693 176.191 227.462 175.953C224.506 172.917 217.015 168.792 212.764 170.904C209.708 172.422 209.009 176.237 210.784 179.009C212.56 181.781 216.506 183.062 219.655 183.332C223.285 183.642 230.875 180.923 231.132 180.818C232.251 184.938 233.099 189.127 233.673 193.358C234.115 196.493 234.432 199.687 234.722 202.895C234.062 201.977 231.383 198.499 231.165 198.275C228.208 195.239 220.717 191.114 216.467 193.226C213.404 194.744 212.711 198.558 214.454 201.33C216.196 204.102 220.176 205.383 223.331 205.653C226.875 205.957 234.135 203.383 234.742 203.165C234.874 204.617 235.013 206.076 235.132 207.534C235.521 212.306 235.891 217.091 236.405 221.804C236.577 223.434 236.815 225.031 237.065 226.641C236.062 225.321 234.188 222.879 234.003 222.681C231.046 219.652 223.555 215.527 219.305 217.632C216.249 219.15 215.549 222.965 217.325 225.744C219.1 228.522 223.047 229.796 226.195 230.067C229.343 230.337 235.514 228.305 237.237 227.704C237.633 230.344 238.088 232.984 238.656 235.584C238.927 236.693 239.131 237.842 239.455 238.884C239.778 239.927 240.049 240.996 240.346 242.039C241.006 244.171 241.666 246.151 242.326 248.118C242.669 249.114 242.986 250.045 243.355 251.009C242.543 249.491 241.21 247.115 241.065 246.91C238.603 243.465 231.825 238.251 227.304 239.69C224.05 240.732 222.783 244.395 224.09 247.398C225.397 250.401 229.132 252.276 232.208 253.022C235.594 253.84 242.92 252.467 243.811 252.296C244.662 254.652 245.513 256.916 246.352 259.061C246.708 259.978 247.064 260.862 247.414 261.701L250.556 261.753C250.034 260.546 249.5 259.292 248.952 257.978C248.16 256.077 247.342 254.051 246.53 251.952C247.342 251.576 253.605 248.593 256.073 246.012C258.158 247.185 260.309 248.236 262.515 249.161C261.921 251.596 261.373 253.972 260.898 256.203C260.469 258.183 260.086 260.097 259.736 261.899H260.898H262.68C262.964 260.255 263.274 258.546 263.617 256.744C264.007 254.711 264.442 252.573 264.937 250.375C265.855 250.514 273.214 251.556 276.553 250.593C279.596 249.715 283.219 247.748 284.42 244.653C285.622 241.557 284.17 237.987 280.87 237.089C276.289 235.848 269.742 241.353 267.439 244.904C267.287 245.128 265.841 248.012 265.135 249.524C265.432 248.204 265.716 246.884 266.046 245.504C266.501 243.524 267.043 241.445 267.564 239.426L268.488 236.284C268.785 235.208 269.194 234.225 269.544 233.175C270.092 231.651 270.732 230.1 271.372 228.555C273.352 229.143 279.233 230.76 282.269 230.364C285.305 229.968 289.285 228.569 290.941 225.658C292.598 222.747 291.707 219.058 288.578 217.646C284.242 215.725 276.943 220.173 274.118 223.335C274.025 223.434 273.504 224.166 272.884 225.038C273.544 223.546 274.204 222.054 274.943 220.569C277.002 216.352 279.233 212.121 281.45 207.871C281.912 206.987 282.361 206.096 282.817 205.231C284.493 205.733 290.836 207.541 294.037 207.125C297.238 206.709 301.059 205.323 302.709 202.419C304.359 199.515 303.475 195.819 300.346 194.407C296.017 192.486 288.71 196.935 285.886 200.09C285.787 200.208 285.16 201.08 284.467 202.07C285.641 199.74 286.777 197.41 287.833 195.06C289.677 191.037 291.247 186.894 292.532 182.659C293.119 182.844 300.518 185.114 304.055 184.639C307.19 184.23 311.071 182.844 312.728 179.933C314.384 177.023 313.487 173.333 310.365 171.921C306.029 170 298.723 174.449 295.904 177.61C295.706 177.834 293.462 181.009 292.697 182.164L292.743 182.019C293.877 177.837 294.639 173.564 295.02 169.248C295.399 165.386 295.551 161.505 295.475 157.625C295.475 154.022 295.198 150.735 294.954 147.824C294.809 146.247 294.65 144.808 294.485 143.468L294.565 143.528C294.637 143.574 296.314 138.063 296.38 137.706C297.139 133.535 296.162 125.041 291.984 122.797C288.974 121.187 285.463 122.797 284.209 125.853C282.955 128.909 284.209 132.862 285.826 135.588C287.443 138.314 292.895 142.34 294.254 143.303C294.393 144.702 294.532 146.194 294.65 147.844C294.829 150.755 295 154.041 294.954 157.625C294.954 158.582 294.895 159.605 294.862 160.608C294.565 158.919 294.129 156.602 294.056 156.384C292.816 152.339 288.031 145.244 283.292 145.164C279.873 145.118 277.51 148.194 277.801 151.461C278.091 154.728 281.041 157.678 283.741 159.381C286.532 161.13 293.337 162.146 294.829 162.351C294.73 164.555 294.571 166.819 294.268 169.169C293.78 173.433 292.912 177.645 291.674 181.755C291.601 181.986 291.496 182.223 291.423 182.461C291.423 181.603 291.067 176.877 291.007 176.554C290.215 172.396 286.242 164.819 281.536 164.238C278.144 163.816 275.458 166.608 275.385 169.888C275.312 173.168 277.919 176.422 280.401 178.389C283.259 180.653 291.067 182.553 291.364 182.626C290.016 186.686 288.407 190.654 286.546 194.506C285.186 197.364 283.688 200.202 282.157 203.04C282.157 201.918 281.8 197.535 281.741 197.219C280.949 193.061 276.976 185.484 272.27 184.903C268.877 184.481 266.198 187.279 266.119 190.553C266.039 193.826 268.66 197.093 271.141 199.053C273.926 201.264 281.404 203.119 282.031 203.277C281.338 204.564 280.652 205.851 279.939 207.132C277.636 211.329 275.319 215.52 273.134 219.731C272.382 221.19 271.696 222.662 270.996 224.12C270.904 222.444 270.666 219.395 270.62 219.137C269.828 214.979 265.855 207.402 261.149 206.822C257.756 206.399 255.07 209.191 254.998 212.471C254.925 215.751 257.532 219.012 260.014 220.972C262.495 222.932 268.759 224.642 270.521 225.097C269.386 227.539 268.31 229.988 267.359 232.456C266.977 233.525 266.515 234.594 266.204 235.644L265.208 238.759C264.601 240.917 264.033 242.917 263.518 244.937C263.254 245.953 263.03 246.917 262.779 247.913C262.937 246.204 263.142 243.485 263.135 243.234C262.984 239.003 260.205 230.912 255.638 229.625C252.338 228.694 249.275 231.05 248.708 234.278C248.635 234.687 248.602 235.103 248.609 235.518C246.692 238.716 245.629 242.352 245.52 246.078C245.52 246.349 245.909 249.55 246.14 251.18C245.652 249.913 245.164 248.659 244.682 247.326C243.962 245.425 243.276 243.366 242.59 241.419C242.273 240.38 241.954 239.338 241.633 238.29C241.289 237.228 241.085 236.178 240.794 235.109C240.412 233.538 240.095 231.895 239.771 230.252C241.751 229.644 247.546 227.75 249.856 225.75C252.166 223.751 254.72 220.378 254.476 217.038C254.232 213.699 251.46 211.098 248.087 211.659C243.415 212.451 239.771 220.187 239.164 224.378C239.164 224.516 239.105 225.414 239.072 226.476C238.808 224.873 238.537 223.262 238.326 221.625C237.719 216.966 237.244 212.207 236.749 207.442C236.643 206.445 236.531 205.462 236.419 204.465C238.095 203.957 244.378 201.964 246.807 199.845C249.236 197.727 251.665 194.473 251.427 191.133C251.189 187.794 248.404 185.193 245.038 185.754C240.359 186.546 236.722 194.288 236.108 198.479C236.108 198.624 236.049 199.7 236.009 200.901C235.706 198.314 235.349 195.74 234.953 193.199C234.271 188.829 233.296 184.51 232.036 180.27C232.624 180.098 240.042 177.907 242.741 175.571C245.131 173.505 247.599 170.205 247.361 166.859C247.124 163.512 244.339 160.919 240.973 161.486C236.293 162.272 232.657 170.013 232.043 174.204C232.003 174.501 231.878 178.389 231.884 179.775L231.845 179.623C230.506 175.488 228.798 171.481 226.743 167.651C224.927 164.222 222.915 160.901 220.717 157.704C218.704 154.721 216.685 152.114 214.87 149.784C213.88 148.55 212.956 147.441 212.078 146.412H212.177C212.263 146.412 210.619 140.894 210.481 140.558C208.817 136.664 203.313 130.116 198.601 130.552C195.195 130.862 193.169 134.169 193.802 137.39C194.436 140.61 197.677 143.231 200.521 144.617C203.366 146.003 210.137 146.346 211.801 146.405C212.692 147.488 213.629 148.656 214.639 149.976C216.394 152.299 218.354 154.946 220.288 157.962C220.81 158.767 221.331 159.651 221.852 160.496C220.678 159.255 219.034 157.566 218.856 157.421C215.556 154.728 207.682 151.481 203.676 154.015C200.798 155.863 200.528 159.731 202.567 162.291C204.607 164.852 208.765 165.737 211.926 165.657Z" fill="black"/>
<path d="M223.021 161.136C222.948 161.183 221.595 155.579 221.549 155.196C221.027 150.992 222.493 142.571 226.796 140.571C229.898 139.132 233.31 140.973 234.379 144.069C235.448 147.164 233.963 151.071 232.208 153.698C230.142 156.82 223.027 161.13 223.021 161.136Z" fill="black"/>
</g>
<g opacity="0.3">
<path d="M90.2603 94.3549L105.574 77.4417L76.2893 50.9273L60.9759 67.8406L90.2603 94.3549Z" stroke="black" stroke-width="0.658844" stroke-miterlimit="10"/>
<path d="M87.3112 88.6288C87.8045 88.0881 88.4921 87.765 89.2233 87.7303C89.9545 87.6957 90.6696 87.9523 91.2118 88.444C91.2976 88.5232 91.3702 88.6024 91.4494 88.6882L100.28 78.9862L100.01 78.775C99.4704 78.2808 99.1484 77.5934 99.1138 76.8628C99.0792 76.1322 99.3347 75.4175 99.8248 74.8744L99.9502 74.7556L79.0348 55.7278L78.9292 55.8598C78.4361 56.3993 77.7491 56.721 77.0191 56.7544C76.289 56.7878 75.5755 56.5302 75.0352 56.038C74.9495 55.9633 74.87 55.8816 74.7976 55.7938L65.9602 65.5024C66.0548 65.5671 66.1451 65.6376 66.2308 65.7136C66.7712 66.2058 67.0941 66.8923 67.1288 67.6224C67.1634 68.3525 66.9069 69.0665 66.4156 69.6076C66.3369 69.6919 66.2532 69.7712 66.1648 69.8452L87.1198 88.8928C87.166 88.8004 87.2386 88.7146 87.3112 88.6288ZM79.7212 69.2644C80.3231 68.6028 81.1078 68.1346 81.9758 67.9191C82.8439 67.7035 83.7564 67.7503 84.5979 68.0535C85.4394 68.3567 86.172 68.9027 86.7031 69.6224C87.2342 70.3421 87.5399 71.2032 87.5815 72.0967C87.623 72.9901 87.3987 73.8759 86.9367 74.6418C86.4748 75.4077 85.796 76.0194 84.9863 76.3994C84.1766 76.7795 83.2724 76.9108 82.388 76.7768C81.5037 76.6428 80.679 76.2495 80.0182 75.6466C79.1333 74.8392 78.6049 73.7136 78.5492 72.517C78.4935 71.3204 78.9151 70.1505 79.7212 69.2644Z" stroke="black" stroke-width="0.66" stroke-miterlimit="10"/>
</g>
<g opacity="0.3">
<path d="M201.991 9.81209L196.16 -12.2875L157.896 -2.19192L163.726 19.9076L201.991 9.81209Z" stroke="black" stroke-width="0.66" stroke-miterlimit="10"/>
<path d="M195.961 9.11198C195.776 8.40218 195.881 7.6481 196.252 7.01561C196.624 6.38313 197.231 5.92405 197.941 5.73938C198.052 5.71319 198.164 5.69336 198.277 5.67998L194.924 -7.01182L194.601 -6.89962C194.25 -6.80826 193.884 -6.78702 193.525 -6.83712C193.166 -6.88722 192.82 -7.00767 192.507 -7.19158C192.195 -7.37548 191.922 -7.61924 191.703 -7.90889C191.485 -8.19855 191.326 -8.52842 191.235 -8.87962C191.219 -8.93382 191.206 -8.98891 191.195 -9.04462L163.845 -1.81762C163.845 -1.76482 163.878 -1.71202 163.898 -1.65262C163.989 -1.30159 164.01 -0.935987 163.96 -0.576739C163.91 -0.217492 163.79 0.128352 163.606 0.440996C163.422 0.75364 163.178 1.02695 162.889 1.24528C162.599 1.46361 162.269 1.62268 161.918 1.71338C161.808 1.74489 161.695 1.76697 161.581 1.77938L164.934 14.4712C165.038 14.424 165.146 14.3864 165.257 14.359C165.609 14.2667 165.974 14.2448 166.334 14.2945C166.693 14.3442 167.04 14.4645 167.353 14.6486C167.665 14.8326 167.939 15.0767 168.157 15.3668C168.375 15.6569 168.534 15.9873 168.623 16.339C168.655 16.4491 168.677 16.5617 168.689 16.6756L196.06 9.45518C196.019 9.34315 195.986 9.22849 195.961 9.11198ZM175.56 4.96718C175.331 4.10265 175.364 3.18966 175.654 2.34369C175.944 1.49773 176.478 0.756799 177.19 0.214627C177.901 -0.327545 178.757 -0.6466 179.65 -0.702176C180.542 -0.757752 181.431 -0.547354 182.204 -0.0975956C182.977 0.352162 183.599 1.02107 183.992 1.82452C184.385 2.62797 184.531 3.52986 184.411 4.4161C184.291 5.30235 183.911 6.13313 183.319 6.80336C182.727 7.47359 181.949 7.95315 181.084 8.18138C179.926 8.48723 178.693 8.32048 177.657 7.71777C176.621 7.11506 175.867 6.12571 175.56 4.96718Z" stroke="black" stroke-width="0.66" stroke-miterlimit="10"/>
</g>
<g opacity="0.3">
<path d="M225.175 133.407L238.59 151.912L270.63 128.685L257.215 110.18L225.175 133.407Z" stroke="black" stroke-width="0.66" stroke-miterlimit="10"/>
<path d="M231.046 131.885C231.474 132.478 231.65 133.217 231.535 133.939C231.42 134.661 231.024 135.309 230.432 135.74C230.339 135.805 230.242 135.865 230.142 135.918L237.844 146.544C237.93 146.471 238.016 146.392 238.108 146.326C238.401 146.113 238.733 145.96 239.085 145.876C239.437 145.792 239.802 145.778 240.159 145.835C240.517 145.892 240.859 146.019 241.168 146.208C241.476 146.398 241.744 146.646 241.956 146.94C241.993 146.985 242.026 147.034 242.055 147.085L264.944 130.486L264.838 130.354C264.625 130.061 264.472 129.728 264.388 129.376C264.303 129.023 264.289 128.657 264.346 128.3C264.403 127.942 264.53 127.598 264.72 127.29C264.91 126.981 265.158 126.712 265.452 126.5C265.545 126.434 265.642 126.374 265.742 126.321L258.06 115.695C257.976 115.773 257.888 115.846 257.796 115.913C257.503 116.126 257.17 116.279 256.818 116.363C256.465 116.448 256.099 116.462 255.741 116.405C255.384 116.348 255.04 116.221 254.731 116.031C254.423 115.842 254.154 115.593 253.941 115.299C253.876 115.206 253.816 115.109 253.763 115.009L230.848 131.621C230.901 131.74 231 131.793 231.046 131.885ZM251.552 128.4C252.076 129.125 252.374 129.988 252.408 130.881C252.441 131.775 252.209 132.658 251.741 133.419C251.272 134.181 250.588 134.786 249.776 135.159C248.964 135.532 248.059 135.656 247.176 135.515C246.293 135.374 245.472 134.974 244.816 134.367C244.161 133.759 243.7 132.97 243.492 132.101C243.285 131.231 243.339 130.32 243.65 129.481C243.96 128.643 244.512 127.915 245.236 127.391C245.717 127.041 246.262 126.79 246.839 126.651C247.417 126.513 248.017 126.49 248.604 126.584C249.191 126.678 249.753 126.886 250.259 127.198C250.765 127.51 251.205 127.918 251.552 128.4Z" stroke="black" stroke-width="0.66" stroke-miterlimit="10"/>
</g>
<g opacity="0.3">
<path d="M261.296 42.5885L246.819 60.2753L277.443 85.3404L291.919 67.6537L261.296 42.5885Z" stroke="black" stroke-width="0.66" stroke-miterlimit="10"/>
<path d="M264.264 47.8803C263.8 48.4454 263.131 48.8031 262.403 48.8749C261.675 48.9467 260.949 48.7266 260.383 48.2631C260.295 48.1912 260.211 48.1141 260.132 48.0321L251.823 58.1895L252.1 58.3875C252.665 58.8516 253.023 59.5204 253.096 60.2476C253.169 60.9747 252.951 61.7013 252.49 62.2683L252.371 62.3937L274.256 80.2995C274.256 80.2533 274.316 80.2071 274.355 80.1609C274.819 79.5958 275.489 79.2381 276.217 79.1663C276.944 79.0945 277.671 79.3146 278.236 79.7781L278.487 80.0091L286.796 69.8517C286.7 69.7917 286.607 69.7256 286.519 69.6537C285.953 69.1906 285.594 68.5216 285.521 67.7939C285.448 67.0662 285.667 66.3393 286.13 65.7729C286.202 65.6851 286.282 65.6035 286.367 65.5287L264.462 47.5965C264.402 47.6952 264.336 47.79 264.264 47.8803ZM272.844 66.8157C272.28 67.5094 271.523 68.0204 270.669 68.2841C269.815 68.5478 268.902 68.5522 268.045 68.297C267.188 68.0417 266.426 67.5382 265.855 66.85C265.285 66.1618 264.931 65.3199 264.839 64.4307C264.747 63.5415 264.92 62.6448 265.337 61.8542C265.755 61.0635 266.397 60.4143 267.183 59.9886C267.969 59.5629 268.864 59.3799 269.754 59.4626C270.644 59.5453 271.49 59.8901 272.184 60.4533C273.117 61.2073 273.713 62.3009 273.84 63.4938C273.968 64.6868 273.617 65.8815 272.864 66.8157H272.844Z" stroke="black" stroke-width="0.66" stroke-miterlimit="10"/>
</g>
<g opacity="0.3">
<path d="M14.1024 211.746L27.5173 230.25L59.5574 207.023L46.1425 188.518L14.1024 211.746Z" stroke="black" stroke-width="0.66" stroke-miterlimit="10"/>
<path d="M19.9848 210.221C20.1975 210.513 20.3504 210.845 20.4347 211.197C20.519 211.549 20.533 211.914 20.476 212.272C20.419 212.629 20.292 212.972 20.1024 213.28C19.9128 213.588 19.6642 213.856 19.371 214.068C19.272 214.141 19.1796 214.194 19.0806 214.253L26.7828 224.879C26.8649 224.798 26.9531 224.723 27.0468 224.655C27.6395 224.228 28.3776 224.053 29.099 224.169C29.8203 224.286 30.4661 224.683 30.8946 225.275L30.987 225.414L53.8824 208.821L53.7768 208.683C53.564 208.39 53.4111 208.058 53.3269 207.706C53.2426 207.354 53.2285 206.989 53.2855 206.632C53.3425 206.274 53.4695 205.931 53.6591 205.623C53.8487 205.315 54.0973 205.047 54.3906 204.835C54.483 204.769 54.582 204.71 54.681 204.65L46.9788 194.024L46.7148 194.249C46.1212 194.675 45.3831 194.85 44.6612 194.735C43.9394 194.62 43.2921 194.225 42.8604 193.635C42.7944 193.536 42.735 193.443 42.6822 193.344L19.8 209.957C19.8396 210.036 19.9122 210.128 19.9848 210.221ZM40.491 206.729C41.016 207.453 41.3146 208.316 41.3492 209.209C41.3837 210.103 41.1526 210.986 40.685 211.748C40.2174 212.51 39.5344 213.117 38.7222 213.491C37.9101 213.865 37.0054 213.989 36.1224 213.849C35.2394 213.709 34.4178 213.31 33.7615 212.703C33.1051 212.096 32.6436 211.307 32.4351 210.438C32.2267 209.569 32.2807 208.657 32.5903 207.818C32.9 206.979 33.4514 206.251 34.1748 205.726C35.1459 205.023 36.3562 204.734 37.5403 204.922C38.7244 205.11 39.7855 205.76 40.491 206.729Z" stroke="black" stroke-width="0.66" stroke-miterlimit="10"/>
</g>
<path d="M58.8853 124.698L77.3653 133.212L92.5915 112.699C92.5915 112.699 92.3737 107.525 92.5915 106.759C93.2693 105.402 94.062 104.106 94.9609 102.885C95.2844 102.449 95.9311 102.885 96.0367 103.545C96.1423 104.205 95.7133 104.733 95.5021 105.274C95.2909 105.815 94.8421 106.997 94.8421 106.997L95.3767 108.614L101.086 104.086C101.086 104.086 102.406 102.363 102.815 103.116C102.944 103.34 103.003 103.598 102.987 103.856C102.97 104.114 102.879 104.361 102.723 104.568L100.122 108.072L101.845 108.178L106.042 104.627C106.042 104.627 106.795 104.304 106.907 105.287C106.94 105.587 106.902 105.891 106.796 106.174C106.691 106.457 106.521 106.712 106.3 106.917L103.726 109.326L102.056 110.349L107.013 108.303C107.013 108.303 107.673 108.963 107.442 109.274L102.056 113.471L106.016 112.811C106.016 112.811 106.557 113.564 106.234 113.999L95.2447 117.121C95.2447 117.121 79.9129 145.93 79.6951 146.359C79.4773 146.788 77.2201 147.758 75.4975 147.224C73.7749 146.689 51.7375 137.093 51.7375 137.093" fill="#55D462"/>
<path d="M58.8853 124.698L77.3653 133.212L92.5915 112.699C92.5915 112.699 92.3737 107.525 92.5915 106.759C93.2693 105.402 94.062 104.106 94.961 102.885C95.2844 102.449 95.9311 102.885 96.0367 103.545C96.1423 104.205 95.7133 104.733 95.5021 105.274C95.2909 105.815 94.8421 106.997 94.8421 106.997L95.3767 108.614L101.086 104.086C101.086 104.086 102.406 102.363 102.815 103.116C102.944 103.34 103.003 103.598 102.987 103.856C102.97 104.114 102.879 104.361 102.723 104.568L100.122 108.072L101.845 108.178L106.042 104.627C106.042 104.627 106.795 104.304 106.907 105.287C106.94 105.587 106.902 105.891 106.796 106.174C106.691 106.457 106.521 106.712 106.3 106.917L103.726 109.326L102.056 110.349L107.013 108.303C107.013 108.303 107.673 108.963 107.442 109.274L102.056 113.471L106.016 112.811C106.016 112.811 106.557 113.564 106.234 113.999L95.2447 117.121C95.2447 117.121 79.9129 145.93 79.6951 146.359C79.4773 146.788 77.2201 147.758 75.4975 147.224C73.7749 146.689 51.7375 137.093 51.7375 137.093" stroke="#263238" stroke-width="0.66" stroke-miterlimit="10"/>
<path d="M87.2124 132.255L95.271 117.114L106.26 113.993C106.583 113.557 106.042 112.805 106.042 112.805L102.082 113.465L107.468 109.267C107.686 108.944 107.039 108.297 107.039 108.297L102.082 110.343L103.752 109.32L106.326 106.911C106.547 106.705 106.717 106.451 106.823 106.168C106.928 105.885 106.966 105.581 106.933 105.281C106.821 104.31 106.069 104.621 106.069 104.621L101.871 108.171L100.148 108.066L102.749 104.561C102.905 104.355 102.997 104.107 103.013 103.849C103.03 103.591 102.97 103.334 102.841 103.109C102.406 102.357 101.112 104.079 101.112 104.079L95.3766 108.64L94.842 107.023C94.842 107.023 95.271 105.835 95.502 105.3C95.733 104.766 96.162 104.218 96.0366 103.571C95.9112 102.924 95.2842 102.495 94.9608 102.911C94.0619 104.133 93.2692 105.429 92.5914 106.785C92.3736 107.538 92.5914 112.725 92.5914 112.725L81.2922 127.945L87.2124 132.255Z" fill="white" stroke="#263238" stroke-width="0.66" stroke-miterlimit="10"/>
<path d="M95.3768 108.64C95.9571 109.125 96.4369 109.719 96.7892 110.389C97.1324 111.234 95.6078 113.26 94.9346 113.597" stroke="#263238" stroke-width="0.66" stroke-miterlimit="10"/>
<path d="M136.083 114.164C147.679 102.568 147.679 83.7672 136.083 72.1713C124.487 60.5753 105.686 60.5753 94.0901 72.1713C82.4942 83.7673 82.4942 102.568 94.0901 114.164C105.686 125.76 124.487 125.76 136.083 114.164Z" fill="white" stroke="#263238" stroke-width="0.66" stroke-miterlimit="10"/>
<path d="M125.521 115.816C138.027 110.05 143.491 95.2382 137.726 82.7321C131.961 70.226 117.149 64.7615 104.642 70.5269C92.1363 76.2923 86.6718 91.1044 92.4372 103.61C98.2027 116.117 113.015 121.581 125.521 115.816Z" fill="white" stroke="#263238" stroke-width="0.66" stroke-miterlimit="10"/>
<path d="M120.206 115.86L119.361 111.9C116.404 112.415 114.013 111.942 112.187 110.481C110.361 109.021 109.017 106.557 108.154 103.089L113.956 100.779C114.242 101.974 114.646 103.137 115.163 104.251C115.49 105.017 116.025 105.675 116.708 106.152C117.008 106.335 117.342 106.456 117.69 106.508C118.038 106.56 118.393 106.542 118.734 106.455C119.094 106.422 119.437 106.288 119.725 106.07C120.013 105.852 120.234 105.558 120.364 105.221C120.577 104.55 120.604 103.834 120.443 103.149C120.213 101.85 119.591 100.652 118.661 99.7168C117.645 98.7744 116.506 97.973 115.276 97.3342L110.986 94.9912C110.038 94.4258 109.13 93.7974 108.266 93.1102C107.426 92.4358 106.703 91.6261 106.128 90.7144C105.468 89.6354 105.01 88.4457 104.775 87.2032C104.207 84.528 104.526 82.2818 105.732 80.4646C107.07 78.5533 109.052 77.1893 111.316 76.6234L110.51 72.8218L112.556 72.3862L113.368 76.1878C114.701 75.9305 116.077 76.0145 117.368 76.432C118.43 76.7984 119.379 77.4353 120.12 78.28C120.843 79.1151 121.433 80.0568 121.869 81.0718C122.314 82.0728 122.684 83.1052 122.978 84.1606L117.038 86.3584C116.816 85.4251 116.532 84.5078 116.186 83.6128C115.948 82.9443 115.543 82.3471 115.012 81.877C114.75 81.6859 114.445 81.5609 114.125 81.5126C113.804 81.4644 113.477 81.4943 113.17 81.5998C112.813 81.6696 112.478 81.8266 112.196 82.0569C111.914 82.2872 111.693 82.5836 111.553 82.9198C111.269 83.5955 111.203 84.3428 111.362 85.0582C111.547 86.1981 112.115 87.241 112.972 88.015C113.801 88.7031 114.684 89.3233 115.612 89.8696L119.81 92.1862C120.93 92.8439 121.998 93.5875 123.004 94.4104C124.023 95.2394 124.913 96.216 125.644 97.3078C126.434 98.5278 126.983 99.8876 127.261 101.314C127.58 102.737 127.564 104.215 127.215 105.63C126.885 106.978 126.202 108.213 125.235 109.208C124.181 110.257 122.881 111.024 121.453 111.438L122.305 115.451L120.206 115.86Z" fill="#263238"/>
<path d="M91.9445 254.177L99.7787 259.721C99.7787 259.721 104.504 260.691 105.112 261.179C105.719 261.668 105.712 263.72 105.712 263.72C105.712 263.72 100.874 264.327 96.3929 264.446C91.9115 264.565 89.6081 264.446 86.0969 264.327C82.5857 264.209 79.6817 264.446 78.9557 263.601C78.2297 262.757 78.9557 255.358 78.9557 255.358C78.9557 255.358 87.1199 250.923 91.9445 254.177Z" fill="white" stroke="#263238" stroke-width="0.66" stroke-miterlimit="10"/>
<path d="M96.3931 264.446C100.875 264.327 105.712 263.72 105.712 263.72C105.709 263.278 105.673 262.837 105.607 262.4C100.597 262.809 91.2913 263.456 88.7635 262.842C85.8859 262.149 80.5003 261.866 78.6391 261.78C78.5973 262.395 78.706 263.011 78.9559 263.575C79.6819 264.42 82.5859 264.176 86.0971 264.301C89.6083 264.426 91.9117 264.565 96.3931 264.446Z" fill="white" stroke="#263238" stroke-width="0.66" stroke-miterlimit="10"/>
<path d="M47.0448 257.543L51.1632 262.75L58.3044 267.231C58.7862 268.683 58.5486 269.046 58.4232 269.535C58.2978 270.023 56.1264 270.135 53.46 270.017C50.7936 269.898 44.2596 270.743 42.3192 270.135C40.3788 269.528 34.2078 267.839 33.4818 267.495C32.7558 267.152 31.5414 266.769 31.9044 265.436C32.2674 264.103 33.3366 259.43 33.3366 259.43C35.3472 258.139 37.6151 257.301 39.9825 256.975C42.3499 256.649 44.7599 256.842 47.0448 257.543Z" fill="white" stroke="#263238" stroke-width="0.66" stroke-miterlimit="10"/>
<path d="M53.46 270.017C56.1 270.135 58.3044 270.017 58.4232 269.535C58.5754 269.129 58.6231 268.691 58.5618 268.261C55.2618 268.4 46.6818 268.736 44.2596 268.439C41.4876 268.109 33.4554 265.139 32.1024 264.644C32.0298 264.954 31.9572 265.218 31.9044 265.416C31.5414 266.736 32.7558 267.113 33.4818 267.476C34.2078 267.839 40.3854 269.535 42.3192 270.116C44.253 270.696 50.82 269.898 53.46 270.017Z" fill="white" stroke="#263238" stroke-width="0.66" stroke-miterlimit="10"/>
<path d="M41.8175 173.426L45.2495 214.966L34.5971 253.332L33.0791 259.41C33.0791 259.41 34.2605 260.427 37.4747 260.255C40.6889 260.084 47.1041 258.566 47.1041 258.566C47.5762 257.685 47.8041 256.693 47.7641 255.695C47.5925 254.342 46.9193 253.833 46.9193 253.332C46.9193 252.83 61.1357 214.966 61.1357 214.966L62.4557 192.995L72.0917 217.5L78.3419 255.358C78.3419 255.358 78.6851 257.219 79.1867 257.048C79.6883 256.876 88.1759 253.84 88.1759 253.84L91.3835 254.183C91.3835 254.183 91.7201 249.279 90.3671 248.243C89.612 247.707 88.9798 247.016 88.5125 246.217L87.1595 210.221L73.9595 173.208L72.7715 168.647L42.3719 170.35L41.8175 173.426Z" fill="#263238" stroke="#263238" stroke-width="0.66" stroke-miterlimit="10"/>
<path d="M41.8179 173.426L42.0885 175.689L73.9797 173.221L72.6069 170.244L41.8179 173.426Z" fill="#55D462" stroke="#263238" stroke-width="0.66" stroke-miterlimit="10"/>
<path d="M38.28 121.609C38.28 121.609 36.3 128.176 36.5376 131.192C36.7752 134.208 40.4976 158.021 40.4976 158.021L41.9034 167.175C41.9034 167.175 40.821 169.974 40.9332 170.621C41.0454 171.267 40.821 172.99 41.7912 173.426C42.7614 173.861 50.9784 173.32 59.4 173.102C67.8216 172.884 71.0358 172.561 72.1116 172.132C73.1874 171.703 74.481 170.192 74.2632 169.01C73.9882 167.872 73.6286 166.755 73.1874 165.671C73.1874 165.671 72.7584 136.901 72.1116 132.486C71.4648 128.07 70.7124 122.038 68.4486 119.774C66.1848 117.51 62.3964 116.56 62.3964 116.56L59.4 122.144C59.4 122.144 49.0578 117.946 45.2892 117.524C41.5206 117.101 38.28 121.609 38.28 121.609Z" fill="#55D462" stroke="#263238" stroke-width="0.66" stroke-miterlimit="10"/>
<path d="M44.5832 142.59C43.184 143.019 42.029 143.349 41.468 143.448" stroke="#263238" stroke-width="0.66" stroke-miterlimit="10"/>
<path d="M54.12 139.396C54.12 139.396 50.1072 140.802 46.53 141.963" stroke="#263238" stroke-width="0.66" stroke-miterlimit="10"/>
<path d="M44.0881 150.458C43.5348 150.861 42.9524 151.223 42.3457 151.54" stroke="#263238" stroke-width="0.66" stroke-miterlimit="10"/>
<path d="M55.1895 140.63C55.1895 140.63 50.0943 145.725 45.9495 149.065" stroke="#263238" stroke-width="0.66" stroke-miterlimit="10"/>
<path d="M60.8852 127.78C60.8852 127.78 52.16 123.16 47.9624 121.84C43.7648 120.52 42.2534 120.335 41.2832 120.52C40.313 120.705 36.5378 124.619 36.2144 123.543C35.891 122.467 37.4024 115.57 37.8314 114.059C38.2604 112.547 44.834 110.719 46.6688 110.184C48.5036 109.65 57.6578 113.201 59.7038 113.847C61.7498 114.494 63.6638 116.864 63.6638 118.467C63.6638 120.071 60.8852 127.78 60.8852 127.78Z" fill="#55D462" stroke="#263238" stroke-width="0.66" stroke-miterlimit="10"/>
<path d="M38.6497 116.349C38.6497 116.349 40.4119 114.943 41.4679 115.649C42.5239 116.355 60.2713 126.348 60.2713 126.348L61.1689 117.055" stroke="#263238" stroke-width="0.66" stroke-miterlimit="10"/>
<path d="M63.6899 88.0679C63.6899 88.0679 65.2211 92.6879 65.2211 93.8363C65.2211 94.9847 64.6799 96.8987 65.0429 97.6181C65.406 98.3375 67.5641 101.67 67.2077 102.238C66.8513 102.806 65.4918 104.759 65.4918 104.759C65.4918 104.759 65.1353 111.511 64.7723 112.237C64.4093 112.963 62.073 112.897 60.9905 112.897H58.7399C58.7399 112.897 60.7199 126.229 60.2711 126.407C59.8223 126.585 46.9391 113.438 46.9391 113.438L47.3879 103.802C47.3879 103.802 42.8999 97.0769 43.6061 94.1201C44.3123 91.1633 51.3545 88.8071 55.1363 87.8171C58.9181 86.8271 63.6899 88.0679 63.6899 88.0679Z" fill="white" stroke="#263238" stroke-width="0.66" stroke-miterlimit="10"/>
<path d="M62.6998 98.2119C62.8318 98.8719 62.6338 99.5319 62.2708 99.5781C61.9078 99.6243 61.5052 99.1425 61.3732 98.4627C61.2412 97.7829 61.4392 97.1427 61.8088 97.0965C62.1784 97.0503 62.5612 97.5255 62.6998 98.2119Z" fill="#263238"/>
<path d="M60.2712 95.8162C60.6599 95.3599 61.176 95.0301 61.7534 94.869C62.3307 94.7079 62.9431 94.7228 63.5118 94.912" stroke="#263238" stroke-width="0.66" stroke-miterlimit="10"/>
<path d="M58.9185 103.202C59.8359 104.434 61.1879 105.272 62.7003 105.545" stroke="#263238" stroke-width="0.66" stroke-miterlimit="10"/>
<path d="M49.0116 100.232C49.0116 100.232 51.3546 100.588 51.3546 99.961C51.3546 99.334 51.084 96.9844 51.084 96.9844C51.084 96.9844 54.2322 94.4632 54.1464 93.295C54.0606 92.1268 52.6152 91.1302 52.701 90.7738C52.7868 90.4174 57.024 89.1502 60.4494 89.1502C63.8748 89.1502 64.5942 89.8696 65.6766 88.246C66.759 86.6224 67.5642 84.4642 65.4918 82.2136C63.4194 79.963 62.4294 80.953 61.3536 80.6824C60.2778 80.4118 57.1164 77.257 54.9582 77.983C54.3467 78.1717 53.7975 78.5222 53.3688 78.9974C52.9401 79.4726 52.6478 80.0548 52.5228 80.6824C52.5228 80.6824 48.4704 77.983 46.761 79.4218C45.786 80.1831 45.1182 81.2704 44.88 82.4842C44.0858 82.5429 43.3202 82.8059 42.6576 83.2476C41.995 83.6893 41.4578 84.2949 41.0982 85.0054C39.9234 87.4408 40.0158 88.7872 40.0158 88.7872C40.0158 88.7872 37.752 90.16 37.8444 92.14C37.8284 93.1477 38.0764 94.1421 38.5638 95.0242C38.5638 95.0242 36.6696 95.836 38.5638 98.7136C40.458 101.591 41.2038 101.961 41.2038 101.961C41.2038 101.961 39.0456 102.231 41.2038 104.033C43.362 105.835 47.3286 106.554 48.2328 107.003C49.137 107.452 49.3152 104.482 49.3152 102.68C49.359 101.853 49.2562 101.024 49.0116 100.232Z" fill="#263238" stroke="#263238" stroke-width="0.66" stroke-miterlimit="10"/>
<path d="M50.4505 101.129C50.4505 101.129 48.1075 98.0801 46.8601 99.0569C45.6127 100.034 46.4113 104.37 47.7643 105.723C49.1173 107.076 51.0973 104.733 51.0973 104.733" fill="white"/>
<path d="M50.4505 101.129C50.4505 101.129 48.1075 98.0801 46.8601 99.0569C45.6127 100.034 46.4113 104.37 47.7643 105.723C49.1173 107.076 51.0973 104.733 51.0973 104.733" stroke="#263238" stroke-width="0.66" stroke-miterlimit="10"/>
<path d="M58.7399 112.838L54.8525 112.772L59.3801 117.405L58.7399 112.838Z" fill="#263238" stroke="#263238" stroke-width="0.66" stroke-miterlimit="10"/>
<path d="M49.2492 124.19L67.7292 132.704L82.9488 112.191C82.9488 112.191 82.7376 107.023 82.9488 106.251C83.16 105.479 85.0014 102.806 85.3248 102.377C85.6482 101.948 86.2884 102.377 86.4006 103.037C86.5128 103.697 86.0772 104.218 85.8594 104.759C85.6416 105.3 85.1994 106.482 85.1994 106.482L85.7406 108.099L91.4496 103.571C91.4496 103.571 92.7696 101.849 93.1722 102.601C93.3016 102.825 93.3625 103.082 93.3473 103.34C93.332 103.598 93.2413 103.846 93.0863 104.053L90.4464 107.558L92.1689 107.67L96.3732 104.112C96.3732 104.112 97.1256 103.789 97.2312 104.772C97.2662 105.073 97.2301 105.378 97.1258 105.662C97.0215 105.947 96.8518 106.202 96.6306 106.409L94.05 108.812L92.4 109.821L97.3565 107.775C97.3565 107.775 98.0166 108.435 97.7856 108.746L92.4 112.943L96.36 112.283C96.36 112.283 96.8946 113.042 96.5712 113.471L85.5822 116.593C85.5822 116.593 70.2504 145.402 70.0392 145.831C69.828 146.26 67.5576 147.23 65.835 146.696C64.1124 146.161 42.075 136.571 42.075 136.571" fill="#55D462"/>
<path d="M49.2492 124.19L67.7292 132.704L82.9488 112.191C82.9488 112.191 82.7376 107.023 82.9488 106.251C83.16 105.479 85.0014 102.806 85.3248 102.377C85.6482 101.948 86.2884 102.377 86.4006 103.037C86.5128 103.697 86.0772 104.218 85.8594 104.759C85.6416 105.3 85.1994 106.482 85.1994 106.482L85.7406 108.099L91.4496 103.571C91.4496 103.571 92.7696 101.849 93.1722 102.601C93.3016 102.825 93.3625 103.082 93.3473 103.34C93.332 103.598 93.2413 103.846 93.0863 104.053L90.4463 107.558L92.1689 107.67L96.3732 104.112C96.3732 104.112 97.1256 103.789 97.2312 104.772C97.2662 105.073 97.2301 105.378 97.1258 105.662C97.0215 105.947 96.8518 106.202 96.6306 106.409L94.05 108.812L92.4 109.821L97.3565 107.775C97.3565 107.775 98.0166 108.435 97.7856 108.746L92.4 112.943L96.36 112.283C96.36 112.283 96.8946 113.042 96.5712 113.471L85.5822 116.593C85.5822 116.593 70.2504 145.402 70.0392 145.831C69.828 146.26 67.5576 147.23 65.835 146.696C64.1124 146.161 42.075 136.571 42.075 136.571" stroke="#263238" stroke-width="0.66" stroke-miterlimit="10"/>
<path d="M77.5832 131.74L85.6352 116.6L96.6242 113.478C96.9476 113.049 96.413 112.29 96.413 112.29L92.453 112.95L97.8386 108.752C98.0564 108.429 97.4096 107.782 97.4096 107.782L92.453 109.828L94.1162 108.805L96.6968 106.403C96.9181 106.196 97.0877 105.94 97.192 105.656C97.2964 105.371 97.3325 105.067 97.2974 104.766C97.1918 103.796 96.4394 104.106 96.4394 104.106L92.2352 107.663L90.5126 107.551L93.1526 104.046C93.3076 103.839 93.3983 103.591 93.4135 103.333C93.4288 103.075 93.3679 102.818 93.2384 102.594C92.8094 101.842 91.5158 103.565 91.5158 103.565L85.8068 108.092L85.2656 106.475C85.2656 106.475 85.6946 105.287 85.9256 104.753C86.1566 104.218 86.5856 103.677 86.4668 103.03C86.348 102.383 85.7078 101.948 85.3844 102.37C85.061 102.792 83.2328 105.492 83.015 106.244C82.7972 106.997 83.015 112.184 83.015 112.184L71.7224 127.404L77.5832 131.74Z" fill="white" stroke="#263238" stroke-width="0.66" stroke-miterlimit="10"/>
<path d="M232.98 44.9435V244.963C232.98 247.592 231.938 250.115 230.083 251.978C228.227 253.84 225.709 254.892 223.08 254.903H136.62C133.991 254.892 131.473 253.84 129.617 251.978C127.762 250.115 126.72 247.592 126.72 244.963V44.9435C126.718 42.3137 127.759 39.7905 129.615 37.9272C131.471 36.0639 133.99 35.0126 136.62 35.0039H173.712V35.1227C174.636 38.4227 176.768 40.6139 179.124 40.6139H180.484C182.84 40.6139 184.972 38.4491 185.896 35.1227V35.0039H223.08C225.709 35.0144 228.227 36.0662 230.083 37.9291C231.938 39.792 232.98 42.3142 232.98 44.9435Z" fill="white" stroke="#263238" stroke-width="0.66" stroke-linecap="round" stroke-linejoin="round"/>
<path d="M232.98 50.6063V44.9435C232.98 42.3142 231.938 39.792 230.083 37.9291C228.227 36.0662 225.709 35.0144 223.08 35.0039H185.975V35.1227C185.051 38.4227 182.919 40.6139 180.563 40.6139H179.203C176.847 40.6139 174.715 38.4491 173.791 35.1227V35.0039H136.62C133.99 35.0126 131.471 36.0639 129.615 37.9272C127.759 39.7905 126.718 42.3137 126.72 44.9435V50.6063H232.98Z" fill="#263238" stroke="#263238" stroke-width="0.66" stroke-miterlimit="10"/>
<path d="M126.72 239.617V244.963C126.72 247.592 127.762 250.115 129.617 251.977C131.473 253.84 133.991 254.892 136.62 254.903H223.08C225.709 254.892 228.227 253.84 230.083 251.977C231.938 250.115 232.98 247.592 232.98 244.963V239.617H126.72Z" fill="#263238" stroke="#263238" stroke-width="0.66" stroke-miterlimit="10"/>
<path d="M239.765 92.7208V72.7426H237.956V47.1676C237.949 42.9898 236.285 38.9854 233.329 36.0331C230.373 33.0808 226.367 31.4218 222.189 31.42H137.511C133.33 31.4218 129.32 33.0836 126.363 36.0401C123.407 38.9967 121.745 43.0062 121.743 47.1874V250.395C121.745 254.576 123.407 258.586 126.363 261.542C129.32 264.499 133.33 266.16 137.511 266.162H222.189C226.37 266.16 230.38 264.499 233.336 261.542C236.293 258.586 237.954 254.576 237.956 250.395V109.742H239.765V97.9414H237.956V92.7208H239.765ZM232.98 239.135C232.98 243.316 231.32 247.325 228.364 250.282C225.408 253.239 221.4 254.901 217.219 254.903H142.461C138.284 254.896 134.28 253.231 131.329 250.275C128.377 247.319 126.72 243.312 126.72 239.135V50.7646C126.722 46.5852 128.383 42.5773 131.338 39.622C134.293 36.6667 138.301 35.0056 142.481 35.0038H173.745V35.1226C174.669 38.4226 176.801 40.6138 179.157 40.6138H180.516C182.873 40.6138 185.004 38.449 185.928 35.1226V35.0038H217.193C219.264 35.0012 221.316 35.4069 223.231 36.1977C225.146 36.9886 226.886 38.149 228.352 39.6127C229.818 41.0764 230.982 42.8147 231.776 44.7282C232.57 46.6417 232.979 48.6929 232.98 50.7646V239.135Z" fill="#55D462" stroke="#263238" stroke-width="0.66" stroke-linecap="round" stroke-linejoin="round"/>
<path d="M220.928 33.5717H138.772C134.746 33.5717 130.884 35.171 128.038 38.0178C125.191 40.8646 123.592 44.7257 123.592 48.7517V248.732C123.592 252.758 125.191 256.619 128.038 259.466C130.884 262.312 134.746 263.912 138.772 263.912H220.928C224.954 263.912 228.815 262.312 231.662 259.466C234.509 256.619 236.108 252.758 236.108 248.732V48.7517C236.108 44.7257 234.509 40.8646 231.662 38.0178C228.815 35.171 224.954 33.5717 220.928 33.5717ZM232.98 239.696C232.98 243.722 231.381 247.583 228.534 250.43C225.687 253.277 221.826 254.876 217.8 254.876H141.9C137.874 254.876 134.013 253.277 131.166 250.43C128.319 247.583 126.72 243.722 126.72 239.696V50.2103C126.72 46.1843 128.319 42.3232 131.166 39.4764C134.013 36.6296 137.874 35.0303 141.9 35.0303H173.725V35.1491C174.649 38.4491 176.781 40.6403 179.137 40.6403H180.497C182.853 40.6403 184.985 38.4755 185.909 35.1491V35.0303H217.8C221.826 35.0303 225.687 36.6296 228.534 39.4764C231.381 42.3232 232.98 46.1843 232.98 50.2103V239.696Z" fill="#263238" stroke="#263238" stroke-width="0.66" stroke-linecap="round" stroke-linejoin="round"/>
<path d="M181.005 35.7629C181.005 35.4708 180.918 35.1852 180.756 34.9422C180.594 34.6992 180.364 34.5097 180.094 34.3976C179.824 34.2856 179.527 34.2559 179.24 34.3124C178.954 34.3689 178.69 34.5091 178.483 34.7152C178.276 34.9213 178.135 35.1841 178.077 35.4704C178.02 35.7568 178.048 36.0538 178.159 36.3241C178.27 36.5943 178.458 36.8257 178.7 36.9889C178.943 37.1522 179.228 37.24 179.52 37.2413C179.715 37.2421 179.908 37.2045 180.088 37.1306C180.268 37.0567 180.432 36.948 180.57 36.8106C180.708 36.6732 180.817 36.51 180.892 36.3302C180.966 36.1504 181.005 35.9576 181.005 35.7629Z" fill="white"/>
<path d="M136.145 41.4323C136.145 42.9305 134.462 43.4651 134.455 44.6135V44.6861H136.092V45.1943H133.914V44.7653C133.914 43.1615 135.59 42.8513 135.59 41.4653C135.59 40.9571 135.425 40.6865 135.009 40.6865C134.594 40.6865 134.429 40.9769 134.429 41.4191V41.8547H133.914V41.4521C133.914 40.6931 134.257 40.1915 135.023 40.1915C135.788 40.1915 136.145 40.6601 136.145 41.4323Z" fill="white"/>
<path d="M138.864 41.4257V41.5511C138.888 41.7636 138.842 41.9781 138.734 42.1625C138.626 42.3469 138.46 42.4913 138.263 42.5741C138.462 42.6572 138.628 42.8026 138.736 42.9884C138.844 43.1741 138.889 43.3901 138.864 43.6037V43.9601C138.864 44.7191 138.507 45.2141 137.742 45.2141C136.976 45.2141 136.62 44.7455 136.62 43.9601V43.6169H137.135V43.9931C137.135 44.4419 137.319 44.7125 137.715 44.7125C138.111 44.7125 138.296 44.4485 138.296 43.9469V43.5641C138.296 43.0757 138.092 42.8381 137.676 42.8249H137.379V42.3299H137.702C138.072 42.3299 138.296 42.0791 138.296 41.6699V41.4455C138.296 40.9373 138.118 40.6733 137.715 40.6733C137.313 40.6733 137.135 40.9505 137.135 41.3993V41.6501H136.62V41.4257C136.62 40.6667 136.97 40.1783 137.729 40.1783C138.488 40.1783 138.864 40.6601 138.864 41.4257Z" fill="white"/>
<path d="M139.92 41.8019V42.4619H139.385V41.8019H139.92ZM139.92 44.5013V45.1943H139.385V44.5013H139.92Z" fill="white"/>
<path d="M141.062 42.2507C141.132 42.1195 141.238 42.0108 141.368 41.9373C141.498 41.8637 141.645 41.8282 141.794 41.8349C142.454 41.8349 142.718 42.3035 142.718 43.0163V43.9601C142.718 44.7191 142.355 45.2141 141.596 45.2141C140.837 45.2141 140.481 44.7191 140.481 43.9601V43.6235H141.002V43.9931C141.002 44.4419 141.187 44.7125 141.583 44.7125C141.979 44.7125 142.164 44.4419 142.164 43.9931V43.0295C142.164 42.5807 141.979 42.3167 141.583 42.3167C141.511 42.3131 141.439 42.3241 141.372 42.3489C141.304 42.3738 141.242 42.412 141.19 42.4613C141.138 42.5106 141.096 42.57 141.067 42.6358C141.038 42.7017 141.023 42.7727 141.022 42.8447V42.9569H140.507L140.639 40.1981H142.619V40.6931H141.154L141.062 42.2507Z" fill="white"/>
<path d="M145.484 41.4191V41.5115H144.962V41.3795C144.962 40.9373 144.778 40.6733 144.375 40.6733C143.972 40.6733 143.768 40.9439 143.768 41.4719V42.5873C143.828 42.4242 143.938 42.2845 144.083 42.1884C144.228 42.0923 144.399 42.0448 144.573 42.0527C145.233 42.0527 145.497 42.5147 145.497 43.2341V43.9601C145.497 44.7191 145.121 45.2141 144.362 45.2141C143.603 45.2141 143.22 44.7455 143.22 43.9601V41.4521C143.22 40.6667 143.57 40.1783 144.362 40.1783C145.154 40.1783 145.484 40.6601 145.484 41.4191ZM143.768 43.2737V44.0195C143.768 44.4683 143.953 44.7389 144.362 44.7389C144.771 44.7389 144.949 44.4683 144.949 44.0195V43.3001C144.949 42.8579 144.758 42.5873 144.362 42.5873C143.966 42.5873 143.768 42.8315 143.768 43.3001V43.2737Z" fill="white"/>
<path d="M199.703 41.6368H198.304V45.1414H199.703V41.6368Z" fill="white"/>
<path d="M201.584 40.9307H200.178V45.1415H201.584V40.9307Z" fill="white"/>
<path d="M203.452 40.4357H202.046V45.1415H203.452V40.4357Z" fill="white"/>
<path d="M205.313 39.5645H203.914V45.1415H205.313V39.5645Z" fill="white"/>
<path d="M222.677 45.0491H214.262V39.9011H222.677V45.0491ZM214.757 44.5805H222.235V40.3697H214.731L214.757 44.5805Z" fill="white"/>
<path d="M219.872 40.8778H215.43V44.0656H219.872V40.8778Z" fill="white"/>
<path d="M223.436 41.8679H222.38V43.0823H223.436V41.8679Z" fill="white"/>
<path d="M211.2 43.96C211.143 43.9611 211.088 43.945 211.041 43.9138C209.325 42.8974 208.197 43.8412 208.151 43.9138C208.091 43.9715 208.012 44.0038 207.929 44.0038C207.847 44.0038 207.767 43.9715 207.708 43.9138C207.679 43.885 207.656 43.8506 207.64 43.8126C207.624 43.7746 207.616 43.7339 207.616 43.6927C207.616 43.6516 207.624 43.6108 207.64 43.5729C207.656 43.5349 207.679 43.5005 207.708 43.4716C207.768 43.4188 209.22 42.1516 211.338 43.432C211.374 43.4537 211.405 43.4822 211.429 43.5158C211.454 43.5494 211.472 43.5875 211.481 43.628C211.491 43.6684 211.493 43.7104 211.487 43.7515C211.48 43.7927 211.466 43.8321 211.444 43.8676C211.412 43.8995 211.374 43.9242 211.332 43.9402C211.29 43.9561 211.245 43.9629 211.2 43.96Z" fill="white"/>
<path d="M211.807 42.8711C211.751 42.8721 211.696 42.856 211.649 42.8249C209.174 41.3531 207.504 42.7787 207.491 42.8249C207.462 42.8542 207.428 42.8775 207.39 42.8934C207.352 42.9093 207.311 42.9175 207.27 42.9175C207.229 42.9175 207.188 42.9093 207.15 42.8934C207.112 42.8775 207.078 42.8542 207.049 42.8249C207.019 42.796 206.996 42.7616 206.98 42.7237C206.964 42.6857 206.956 42.645 206.956 42.6038C206.956 42.5626 206.964 42.5219 206.98 42.4839C206.996 42.446 207.019 42.4116 207.049 42.3827C207.049 42.3827 209.075 40.6403 211.946 42.3431C211.981 42.3648 212.012 42.3932 212.037 42.4268C212.061 42.4604 212.079 42.4986 212.089 42.539C212.099 42.5795 212.1 42.6215 212.094 42.6626C212.088 42.7037 212.073 42.7432 212.051 42.7787C212.02 42.8106 211.981 42.8353 211.939 42.8512C211.897 42.8672 211.852 42.8739 211.807 42.8711Z" fill="white"/>
<path d="M212.382 41.6501C212.326 41.647 212.272 41.6312 212.223 41.6039C209.088 39.7361 207.003 41.4917 206.943 41.5709C206.883 41.629 206.802 41.6614 206.719 41.6614C206.635 41.6614 206.555 41.629 206.494 41.5709C206.441 41.5075 206.414 41.4257 206.421 41.343C206.427 41.2604 206.465 41.1834 206.527 41.1287C206.527 41.1287 209.029 38.9903 212.573 41.1287C212.608 41.1497 212.639 41.1775 212.664 41.2106C212.688 41.2436 212.706 41.2812 212.715 41.3211C212.725 41.361 212.727 41.4025 212.721 41.4431C212.714 41.4837 212.7 41.5227 212.679 41.5577C212.641 41.5968 212.594 41.6258 212.542 41.6419C212.49 41.6581 212.435 41.6609 212.382 41.6501Z" fill="white"/>
<path d="M210.23 44.4551C210.23 44.6117 210.183 44.7648 210.096 44.8951C210.009 45.0253 209.886 45.1268 209.741 45.1868C209.596 45.2467 209.437 45.2624 209.283 45.2318C209.13 45.2013 208.988 45.1258 208.878 45.0151C208.767 44.9043 208.692 44.7632 208.661 44.6096C208.63 44.4559 208.646 44.2967 208.706 44.152C208.766 44.0072 208.868 43.8836 208.998 43.7965C209.128 43.7095 209.281 43.6631 209.438 43.6631C209.542 43.6622 209.645 43.6821 209.742 43.7215C209.838 43.761 209.926 43.8193 210 43.8931C210.073 43.9668 210.132 44.0544 210.171 44.1509C210.211 44.2474 210.231 44.3508 210.23 44.4551Z" fill="white"/>
<path d="M220.314 139.502H139.748C137.135 139.502 135.016 141.62 135.016 144.234V190.625C135.016 193.239 137.135 195.357 139.748 195.357H220.314C222.928 195.357 225.047 193.239 225.047 190.625V144.234C225.047 141.62 222.928 139.502 220.314 139.502Z" fill="#55D462" stroke="#263238" stroke-width="0.66" stroke-linecap="round" stroke-linejoin="round"/>
<path d="M151.45 183.53H141.92V187.47H151.45V183.53Z" fill="#263238"/>
<path d="M164.102 183.53H154.572V187.47H164.102V183.53Z" fill="#263238"/>
<path d="M176.748 183.53H167.218V187.47H176.748V183.53Z" fill="#263238"/>
<path d="M189.4 183.53H179.87V187.47H189.4V183.53Z" fill="#263238"/>
<path d="M202.052 183.53H192.522V187.47H202.052V183.53Z" fill="#263238"/>
<path d="M214.705 183.53H205.174V187.47H214.705V183.53Z" fill="#263238"/>
<path d="M160.433 158.886H144.104C142.898 158.886 141.92 159.864 141.92 161.07V172.145C141.92 173.352 142.898 174.33 144.104 174.33H160.433C161.639 174.33 162.617 173.352 162.617 172.145V161.07C162.617 159.864 161.639 158.886 160.433 158.886Z" fill="white" stroke="#263238" stroke-width="0.66" stroke-linecap="round" stroke-linejoin="round"/>
<path d="M187.262 146.075H141.92V148.372H187.262V146.075Z" fill="#263238"/>
<path d="M199.732 100.917C202.55 88.7998 195.011 76.6926 182.894 73.875C170.776 71.0574 158.669 78.5964 155.851 90.7138C153.034 102.831 160.573 114.938 172.69 117.756C184.808 120.574 196.915 113.035 199.732 100.917Z" fill="#263238"/>
<path d="M178.042 116.817V113.154C175.336 113.049 173.312 112.169 171.97 110.514C170.628 108.86 169.906 106.44 169.805 103.254L175.362 102.311C175.388 103.422 175.527 104.528 175.778 105.611C175.922 106.351 176.269 107.037 176.781 107.591C177.012 107.811 177.284 107.983 177.582 108.097C177.88 108.21 178.198 108.262 178.517 108.251C178.842 108.287 179.171 108.232 179.467 108.092C179.763 107.952 180.015 107.733 180.193 107.459C180.504 106.907 180.661 106.283 180.649 105.65C180.691 104.457 180.366 103.28 179.718 102.278C178.996 101.256 178.142 100.335 177.177 99.5386L173.824 96.661C173.095 95.9838 172.411 95.2584 171.778 94.4896C171.16 93.7366 170.673 92.8841 170.34 91.9684C169.962 90.892 169.78 89.7563 169.805 88.6156C169.805 86.1472 170.507 84.2222 171.91 82.8406C173.455 81.4042 175.465 80.5724 177.573 80.4976V76.96H179.461V80.4712C180.687 80.4923 181.888 80.8238 182.952 81.4348C183.814 81.9557 184.528 82.6899 185.025 83.5666C185.504 84.4429 185.849 85.3863 186.048 86.365C186.253 87.3327 186.386 88.3145 186.444 89.302L180.801 90.16C180.786 89.2954 180.709 88.4329 180.57 87.5794C180.485 86.9431 180.24 86.3389 179.857 85.8238C179.66 85.6059 179.415 85.4383 179.14 85.335C178.866 85.2316 178.571 85.1956 178.279 85.2298C177.949 85.2239 177.623 85.3004 177.331 85.4526C177.038 85.6047 176.788 85.8276 176.603 86.101C176.228 86.6462 176.029 87.2938 176.035 87.9556C175.989 88.978 176.286 89.9864 176.88 90.82C177.483 91.5793 178.145 92.2899 178.86 92.9452L182.16 95.7832C183.03 96.5738 183.835 97.4323 184.569 98.3506C185.307 99.2748 185.905 100.302 186.345 101.4C186.805 102.629 187.029 103.935 187.005 105.248C187.021 106.563 186.731 107.864 186.16 109.049C185.61 110.178 184.766 111.138 183.718 111.828C182.589 112.561 181.292 112.997 179.949 113.095V116.798L178.042 116.817Z" fill="white" stroke="#263238" stroke-width="0.66" stroke-linecap="round" stroke-linejoin="round"/>
<path d="M195.459 90.0478C198.984 90.0478 201.841 87.1904 201.841 83.6656C201.841 80.1408 198.984 77.2834 195.459 77.2834C191.934 77.2834 189.077 80.1408 189.077 83.6656C189.077 87.1904 191.934 90.0478 195.459 90.0478Z" fill="#55D462" stroke="#263238" stroke-width="0.66" stroke-linecap="round" stroke-linejoin="round"/>
<path d="M195.439 86.4442C195.311 86.4388 195.185 86.4053 195.071 86.346C194.957 86.2867 194.857 86.203 194.779 86.101L191.631 82.0288C191.488 81.8441 191.425 81.6104 191.455 81.3789C191.484 81.1474 191.605 80.9373 191.789 80.7946C191.974 80.6519 192.208 80.5885 192.439 80.6182C192.671 80.6479 192.881 80.7683 193.024 80.953L195.512 84.1804L202.039 76.6564C202.197 76.5027 202.407 76.4139 202.627 76.4077C202.847 76.4015 203.062 76.4783 203.228 76.6229C203.394 76.7675 203.5 76.9693 203.524 77.1882C203.549 77.4072 203.49 77.6273 203.359 77.8048L196.132 86.1406C196.047 86.2397 195.94 86.3184 195.82 86.3709C195.7 86.4234 195.57 86.4485 195.439 86.4442Z" fill="#263238"/>
</g>
<defs>
<clipPath id="clip0_251_345">
<rect width="330" height="285" fill="white"/>
</clipPath>
</defs>
</svg>
